<svg width="18" height="22" viewBox="0 0 18 22" fill="none" xmlns="http://www.w3.org/2000/svg">
<path d="M9.11602 0C7.95476 0 7.3984 0.656568 7.12266 1.04941C5.60792 1.23859 4.30251 2.05753 3.4541 3.35039C2.5012 4.80249 1.97481 6.70932 1.82637 8.81894C1.7256 10.2675 1.61173 11.4628 1.35527 12.1201C1.27734 12.3204 1.27367 12.542 1.34492 12.7448C1.41617 12.9476 1.55764 13.1182 1.74375 13.2258C2.30554 13.5504 3.08158 13.7921 4.05 14.0133C5.01842 14.2345 6.13299 14.4 7.2 14.4V15.2982C7.2 15.2988 7.2 15.2994 7.2 15.3V15.3018C7.10657 15.5546 6.9652 15.7703 6.77812 15.9662C6.61686 16.0948 6.50918 16.2 6.50918 16.2C6.36266 16.3184 6.19599 16.4244 6.02051 16.527C5.85395 16.624 5.6663 16.7167 5.47383 16.8064C5.24582 16.913 5.01205 17.0168 4.76367 17.1158C4.67255 17.1523 4.58277 17.1885 4.48945 17.2248C4.00476 17.4127 3.50953 17.6091 3.01992 17.8207C2.9381 17.8563 2.8499 17.8914 2.77031 17.9279C2.40728 18.094 2.05576 18.2739 1.7332 18.4852C1.72687 18.4893 1.72018 18.4933 1.71387 18.4975C1.71073 18.4995 1.70821 18.5024 1.70508 18.5045C1.17685 18.855 0.72479 19.2817 0.420117 19.8387L0.418359 19.8404C0.416226 19.8443 0.415205 19.8489 0.413086 19.8527C0.323157 20.0191 0.248415 20.1966 0.186328 20.3871C0.180825 20.4039 0.170472 20.4176 0.165234 20.4346C0.147695 20.4918 0.135918 20.5507 0.130078 20.6104C0.0534861 20.9118 0 21.2337 0 21.6H0.961523C0.98259 21.6013 1.0037 21.6019 1.0248 21.6018H16.9752C16.9852 21.6013 16.9951 21.6008 17.0051 21.6H18C18 21.2337 17.9465 20.9118 17.8699 20.6104C17.8641 20.5507 17.8523 20.4918 17.8348 20.4346C17.8295 20.4176 17.8192 20.4039 17.8137 20.3871C17.7501 20.1921 17.6743 20.0083 17.5816 19.8387C17.2777 19.2826 16.8253 18.8565 16.2984 18.5063C16.2942 18.5035 16.2903 18.5002 16.2861 18.4975C16.2772 18.4916 16.2669 18.4874 16.258 18.4816C15.941 18.2747 15.598 18.0965 15.242 17.9332C15.153 17.8923 15.0543 17.8534 14.9625 17.8137C14.4508 17.5933 13.9316 17.3897 13.4279 17.1932C13.3709 17.1708 13.3153 17.1488 13.2592 17.1264C13.0022 17.0243 12.7617 16.9165 12.5262 16.8064C12.3336 16.7164 12.146 16.624 11.9795 16.527C11.804 16.4244 11.6356 16.3184 11.4891 16.2C11.4891 16.2 11.3716 16.0815 11.192 15.9398L11.1902 15.9381C11.017 15.75 10.889 15.5426 10.8 15.3018V14.4C11.8527 14.4 12.9416 14.2484 13.8814 14.0414C14.8213 13.8344 15.5639 13.613 16.1191 13.2855C16.3075 13.1746 16.4489 12.9988 16.5172 12.7912C16.5854 12.5835 16.5758 12.3581 16.49 12.157C16.2174 11.5159 16.0666 10.3459 15.91 8.8418C15.6651 6.48707 15.1505 4.35578 14.0906 2.72109C13.0308 1.08641 11.3159 0 9.11602 0ZM9.11602 1.8C10.7744 1.8 11.7737 2.45555 12.5807 3.7002C13.3876 4.94484 13.8919 6.82975 14.1205 9.02812C14.2382 10.1588 14.4275 11.0331 14.6566 11.9109C14.3355 12.0335 14.058 12.1591 13.493 12.2836C12.8525 12.4247 12.1285 12.5158 11.4258 12.5596C12.0982 11.5651 12.6 10.2867 12.6 9C10.1439 8.1153 8.1 6.3 8.1 6.3C8.1 6.3 5.4 8.1 5.4 9.9C5.4 10.9911 5.655 11.8549 6.0416 12.5262C5.49753 12.4652 4.94931 12.3728 4.45078 12.259C3.84351 12.1203 3.51745 11.9765 3.17637 11.8424C3.38306 10.9453 3.54486 10.0416 3.62109 8.94551V8.94375C3.75364 7.0636 4.24288 5.42923 4.95879 4.33828C5.67493 3.24698 6.52213 2.7 7.65 2.7C7.81715 2.70001 7.981 2.65348 8.12319 2.56562C8.26539 2.47775 8.38031 2.35203 8.45508 2.20254C8.45508 2.20254 8.63136 1.8 9.11602 1.8Z" fill="#637381"/>
</svg>
