<svg width="46" height="46" viewBox="0 0 46 46" fill="none" xmlns="http://www.w3.org/2000/svg">
<path d="M23 0C10.3093 0 0 10.3093 0 23C0 35.6907 10.3093 46 23 46C35.6907 46 46 35.6907 46 23C46 10.3093 35.6907 0 23 0ZM23 2C34.6098 2 44 11.3902 44 23C44 34.6098 34.6098 44 23 44C11.3902 44 2 34.6098 2 23C2 11.3902 11.3902 2 23 2ZM22.9844 14.9863C22.7195 14.9905 22.4671 15.0995 22.2825 15.2896C22.098 15.4796 21.9964 15.7351 22 16V22H16C15.8675 21.9981 15.7359 22.0226 15.613 22.072C15.49 22.1214 15.3781 22.1948 15.2837 22.2878C15.1893 22.3809 15.1144 22.4918 15.0632 22.614C15.0121 22.7363 14.9858 22.8675 14.9858 23C14.9858 23.1325 15.0121 23.2637 15.0632 23.386C15.1144 23.5082 15.1893 23.6191 15.2837 23.7122C15.3781 23.8052 15.49 23.8786 15.613 23.928C15.7359 23.9774 15.8675 24.0019 16 24H22V30C21.9981 30.1325 22.0226 30.2641 22.072 30.387C22.1214 30.51 22.1948 30.6219 22.2878 30.7163C22.3809 30.8107 22.4918 30.8856 22.614 30.9368C22.7363 30.9879 22.8675 31.0142 23 31.0142C23.1325 31.0142 23.2637 30.9879 23.386 30.9368C23.5082 30.8856 23.6191 30.8107 23.7122 30.7163C23.8052 30.6219 23.8786 30.51 23.928 30.387C23.9774 30.2641 24.0019 30.1325 24 30V24H30C30.1325 24.0019 30.2641 23.9774 30.387 23.928C30.51 23.8786 30.6219 23.8052 30.7163 23.7122C30.8107 23.6191 30.8856 23.5082 30.9368 23.386C30.9879 23.2637 31.0142 23.1325 31.0142 23C31.0142 22.8675 30.9879 22.7363 30.9368 22.614C30.8856 22.4918 30.8107 22.3809 30.7163 22.2878C30.6219 22.1948 30.51 22.1214 30.387 22.072C30.2641 22.0226 30.1325 21.9981 30 22H24V16C24.0018 15.8662 23.9768 15.7334 23.9264 15.6095C23.876 15.4855 23.8012 15.373 23.7065 15.2784C23.6118 15.1839 23.4991 15.1094 23.375 15.0592C23.251 15.009 23.1182 14.9842 22.9844 14.9863Z" fill="#637381"/>
</svg>
