<svg width="24" height="24" viewBox="0 0 24 24" fill="none" xmlns="http://www.w3.org/2000/svg">
<path d="M12.0004 1C8.68645 1 6.00045 3.686 6.00045 7C6.00045 9.838 8.63065 13.7417 10.4087 16.0547C11.2147 17.1037 12.7872 17.1037 13.5922 16.0547C15.3702 13.7417 18.0004 9.838 18.0004 7C18.0004 3.686 15.3144 1 12.0004 1ZM12.0004 4.85742C13.1844 4.85742 14.143 5.816 14.143 7C14.143 8.183 13.1834 9.14258 12.0004 9.14258C10.8174 9.14258 9.85787 8.184 9.85787 7C9.85787 5.816 10.8164 4.85742 12.0004 4.85742ZM6.15475 15C5.33675 15 4.60132 15.4988 4.29732 16.2578L3.09811 19.2578C2.57311 20.5718 3.53857 22 4.95357 22H19.0473C20.4623 22 21.4278 20.5718 20.9028 19.2578L19.7036 16.2578C19.3996 15.4988 18.6642 15 17.8462 15H17.0004C16.4484 15 16.0004 15.448 16.0004 16C16.0004 16.552 16.4484 17 17.0004 17H17.8481L18.7739 19.3145C18.9049 19.6435 18.663 20 18.309 20H5.69186C5.33786 20 5.09696 19.6435 5.22896 19.3145L6.15279 17H7.00045C7.55245 17 8.00045 16.552 8.00045 16C8.00045 15.448 7.55245 15 7.00045 15H6.15475Z" fill="#637381"/>
</svg>
