<svg width="20" height="20" viewBox="0 0 20 20" fill="none" xmlns="http://www.w3.org/2000/svg">
<path d="M16.4796 1.6001H3.51961C2.45961 1.6001 1.59961 2.4601 1.59961 3.5201V16.4801C1.59961 17.5401 2.45961 18.4001 3.51961 18.4001H16.4796C17.5396 18.4001 18.3996 17.5401 18.3996 16.4801V3.5201C18.3996 2.4601 17.5396 1.6001 16.4796 1.6001ZM13.3996 4.0001C14.8356 4.0001 15.9996 5.1641 15.9996 6.6001C15.9996 8.0361 14.8356 9.2001 13.3996 9.2001C11.9636 9.2001 10.7996 8.0361 10.7996 6.6001C10.7996 5.1641 11.9636 4.0001 13.3996 4.0001ZM8.82361 5.2521L5.25161 8.8241C4.89561 8.6081 4.59161 8.3041 4.37961 7.9481L7.94761 4.3761C8.30361 4.5921 8.60761 4.8961 8.82361 5.2521ZM6.59961 4.0001C6.86361 4.0001 7.11961 4.0401 7.36361 4.1121L4.11161 7.3601C4.03961 7.1201 3.99961 6.8641 3.99961 6.6001C3.99961 5.1641 5.16361 4.0001 6.59961 4.0001ZM6.59961 16.0001C5.16361 16.0001 3.99961 14.8361 3.99961 13.4001C3.99961 11.9641 5.16361 10.8001 6.59961 10.8001C8.03561 10.8001 9.19961 11.9641 9.19961 13.4001C9.19961 14.8361 8.03561 16.0001 6.59961 16.0001ZM6.59961 9.2001C6.33561 9.2001 6.07961 9.1601 5.83561 9.0881L9.08761 5.8361C9.15961 6.0801 9.19961 6.3361 9.19961 6.6001C9.19961 8.0361 8.03561 9.2001 6.59961 9.2001ZM10.7996 13.4001C10.7996 11.9641 11.9636 10.8001 13.3996 10.8001C13.6636 10.8001 13.9196 10.8401 14.1636 10.9121L10.9116 14.1641C10.8396 13.9201 10.7996 13.6641 10.7996 13.4001ZM11.1756 14.7481L14.7476 11.1761C15.1036 11.3921 15.4076 11.6961 15.6236 12.0521L12.0516 15.6241C11.6956 15.4081 11.3916 15.1041 11.1756 14.7481ZM13.3996 16.0001C13.1356 16.0001 12.8796 15.9601 12.6356 15.8881L15.8876 12.6361C15.9596 12.8801 15.9996 13.1361 15.9996 13.4001C15.9996 14.8361 14.8356 16.0001 13.3996 16.0001Z" fill="#637381"/>
</svg>
