<svg width="42" height="38" viewBox="0 0 42 38" fill="none" xmlns="http://www.w3.org/2000/svg">
<path d="M14.7501 0.166748L10.5834 4.33341H4.33342C2.03849 4.33341 0.166748 6.20516 0.166748 8.50008V33.5001C0.166748 35.795 2.03849 37.6667 4.33342 37.6667H37.6668C39.9617 37.6667 41.8334 35.795 41.8334 33.5001V8.50008C41.8334 6.20516 39.9617 4.33341 37.6668 4.33341H31.4167L27.2501 0.166748H14.7501ZM21.0001 10.5834C26.835 10.5834 31.4167 15.1651 31.4167 21.0001C31.4167 26.835 26.835 31.4167 21.0001 31.4167C15.1651 31.4167 10.5834 26.835 10.5834 21.0001C10.5834 15.1651 15.1651 10.5834 21.0001 10.5834ZM21.0001 13.7084C16.9718 13.7084 13.7084 16.9718 13.7084 21.0001C13.7084 25.0284 16.9718 28.2917 21.0001 28.2917C25.0284 28.2917 28.2917 25.0284 28.2917 21.0001C28.2917 16.9718 25.0284 13.7084 21.0001 13.7084Z" fill="white"/>
</svg>
