<svg width="16" height="16" viewBox="0 0 16 16" fill="none" xmlns="http://www.w3.org/2000/svg">
<path d="M8 0.5C3.86675 0.5 0.5 3.86675 0.5 8C0.5 12.1333 3.86675 15.5 8 15.5C12.1333 15.5 15.5 12.1333 15.5 8C15.5 3.86675 12.1333 0.5 8 0.5ZM8 2C11.3226 2 14 4.67741 14 8C14 11.3226 11.3226 14 8 14C4.67741 14 2 11.3226 2 8C2 4.67741 4.67741 2 8 2ZM8 4.25439C7.03869 4.25439 6.07772 4.61955 5.34863 5.34863C3.89046 6.8068 3.89046 9.1932 5.34863 10.6514C6.8068 12.1095 9.1932 12.1095 10.6514 10.6514L9.59082 9.59082C8.70599 10.4757 7.29401 10.4757 6.40918 9.59082C5.52435 8.70599 5.52435 7.29401 6.40918 6.40918C7.29401 5.52435 8.70599 5.52435 9.59082 6.40918L10.6514 5.34863C9.92228 4.61955 8.96131 4.25439 8 4.25439Z" fill="#C4CDD5"/>
</svg>
