<svg width="30" height="30" viewBox="0 0 30 30" fill="none" xmlns="http://www.w3.org/2000/svg">
<circle cx="15" cy="15" r="15" fill="white"/>
<g clip-path="url(#clip0)">
<path d="M21.0932 8.90754C19.888 7.69944 17.9282 7.69944 16.7231 8.90754L8.71086 16.9168C8.64822 16.9795 8.60944 17.06 8.59751 17.1465L8.0039 21.5434C7.986 21.6687 8.03075 21.794 8.11725 21.8805C8.19183 21.955 8.29623 21.9998 8.40063 21.9998C8.41853 21.9998 8.43643 21.9998 8.45433 21.9968L11.1032 21.6389C11.3239 21.609 11.4791 21.4062 11.4492 21.1854C11.4194 20.9647 11.2166 20.8096 10.9958 20.8394L8.87194 21.1258L9.28658 18.0593L12.5141 21.2869C12.5887 21.3614 12.6931 21.4062 12.7975 21.4062C12.9019 21.4062 13.0063 21.3644 13.0809 21.2869L21.0932 13.2776C21.6778 12.6929 22 11.9174 22 11.0911C22 10.2648 21.6778 9.48922 21.0932 8.90754ZM16.8782 9.89192L18.2236 11.2372L10.9123 18.5485L9.56697 17.2032L16.8782 9.89192ZM12.8005 20.4337L11.485 19.1182L18.7963 11.807L20.1118 13.1225L12.8005 20.4337ZM20.6726 12.5468L17.4539 9.32814C17.8626 8.99106 18.3727 8.80612 18.9096 8.80612C19.5211 8.80612 20.0939 9.04476 20.5264 9.47431C20.9589 9.90385 21.1946 10.4796 21.1946 11.0911C21.1946 11.631 21.0096 12.1381 20.6726 12.5468Z" fill="#212B36"/>
</g>
<defs>
<clipPath id="clip0">
<rect width="14" height="14" fill="white" transform="translate(8 8)"/>
</clipPath>
</defs>
</svg>
