<svg width="60" height="60" viewBox="0 0 60 60" fill="none" xmlns="http://www.w3.org/2000/svg">
<path d="M55.1531 2.37653C54.5296 2.39511 53.9378 2.6557 53.5031 3.10309L47.7399 8.86638C42.9418 4.83658 36.7446 2.39997 30 2.39997C14.7854 2.39997 2.4 14.7853 2.4 30C2.4 36.744 4.83415 42.9434 8.86407 47.7422L3.10313 53.5031C2.87279 53.7242 2.6889 53.9891 2.56222 54.2822C2.43553 54.5753 2.36861 54.8908 2.36536 55.2101C2.36211 55.5294 2.4226 55.8461 2.5433 56.1417C2.66399 56.4374 2.84246 56.7059 3.06825 56.9317C3.29404 57.1575 3.56261 57.336 3.85823 57.4567C4.15386 57.5774 4.4706 57.6379 4.78989 57.6346C5.10919 57.6314 5.42463 57.5644 5.71774 57.4378C6.01085 57.3111 6.27573 57.1272 6.49688 56.8968L56.8969 6.49684C57.2437 6.15973 57.4806 5.72572 57.5765 5.25167C57.6724 4.77762 57.6228 4.28566 57.4343 3.84025C57.2458 3.39485 56.9272 3.01678 56.5201 2.75559C56.113 2.4944 55.6366 2.36227 55.1531 2.37653ZM30 7.19997C35.4448 7.19997 40.4216 9.09707 44.3367 12.2695L12.2695 44.3367C9.09677 40.4211 7.2 35.4447 7.2 30C7.2 17.3794 17.3795 7.19997 30 7.19997ZM52.6149 14.175L49.1461 17.639C51.5137 21.2894 52.8 25.5372 52.8 30C52.8 42.6205 42.6206 52.8 30 52.8C25.5504 52.8 21.2896 51.5242 17.6344 49.1554L14.1914 52.5961C18.7994 55.8301 24.2652 57.6 30 57.6C45.2147 57.6 57.6 45.2146 57.6 30C57.6 24.2448 55.8525 18.777 52.6149 14.175Z" fill="#E84671"/>
</svg>
