<svg width="54" height="54" viewBox="0 0 54 54" fill="none" xmlns="http://www.w3.org/2000/svg">
<path fill-rule="evenodd" clip-rule="evenodd" d="M0.333252 1.60016C0.333252 0.866829 0.866585 0.333496 1.59992 0.333496H52.4666C53.1999 0.333496 53.7333 0.866829 53.7333 1.60016V52.4668C53.7333 53.2002 53.1999 53.7335 52.4666 53.7335H1.59992C0.866585 53.7335 0.333252 53.2002 0.333252 52.4668V1.60016ZM46.9999 13.6671H6.99992V33.6671H13.6666L20.3332 40.3338H33.6666L40.3332 33.6671H46.9999V13.6671Z" fill="#33b0e6"/>
<mask id="mask0" mask-type="alpha" maskUnits="userSpaceOnUse" x="0" y="0" width="54" height="54">
<path fill-rule="evenodd" clip-rule="evenodd" d="M0.333252 1.60016C0.333252 0.866829 0.866585 0.333496 1.59992 0.333496H52.4666C53.1999 0.333496 53.7333 0.866829 53.7333 1.60016V52.4668C53.7333 53.2002 53.1999 53.7335 52.4666 53.7335H1.59992C0.866585 53.7335 0.333252 53.2002 0.333252 52.4668V1.60016ZM46.9999 13.6671H6.99992V33.6671H13.6666L20.3332 40.3338H33.6666L40.3332 33.6671H46.9999V13.6671Z" fill="white"/>
</mask>
<g mask="url(#mask0)">
<rect x="-3" y="-3" width="60" height="60" rx="4" fill="#33b0e6"/>
</g>
</svg>
