<svg width="20" height="18" viewBox="0 0 20 18" fill="none" xmlns="http://www.w3.org/2000/svg">
<path d="M5.63633 0.199951C2.74433 0.199951 0.400391 2.54389 0.400391 5.43589C0.400391 10.4698 6.23957 15.2798 8.96758 17.4218C8.97018 17.4239 8.97278 17.426 8.97539 17.4281C8.99408 17.4428 9.0195 17.4637 9.03789 17.4781L9.03945 17.4765C9.31623 17.6856 9.65348 17.7992 10.0004 17.7999C10.3478 17.7995 10.6857 17.686 10.9629 17.4765V17.4781C10.9683 17.4739 10.9762 17.4683 10.9816 17.464C10.9858 17.4608 10.9916 17.4563 10.9957 17.4531C11.0009 17.4484 11.0062 17.4437 11.0113 17.439C13.7309 15.3047 19.6004 10.4818 19.6004 5.43589C19.6004 2.54389 17.2565 0.199951 14.3645 0.199951C11.6005 0.199951 10.0004 2.59995 10.0004 2.59995C10.0004 2.59995 8.40033 0.199951 5.63633 0.199951Z" fill="#637381"/>
</svg>
