<svg width="18" height="18" viewBox="0 0 18 18" fill="none" xmlns="http://www.w3.org/2000/svg">
<path fill-rule="evenodd" clip-rule="evenodd" d="M2 1V5H16V1H2ZM2 7V16.82C2 16.92 2.08 17 2.18 17H15.8C15.9 17 15.98 16.92 15.98 16.82V7H2ZM6 9H4V11H6V9ZM8 9H10V11H8V9ZM14 9H12V11H14V9ZM4 13H6V15H4V13ZM10 13H8V15H10V13Z" fill="black"/>
<mask id="mask0" mask-type="alpha" maskUnits="userSpaceOnUse" x="2" y="1" width="14" height="16">
<path fill-rule="evenodd" clip-rule="evenodd" d="M2 1V5H16V1H2ZM2 7V16.82C2 16.92 2.08 17 2.18 17H15.8C15.9 17 15.98 16.92 15.98 16.82V7H2ZM6 9H4V11H6V9ZM8 9H10V11H8V9ZM14 9H12V11H14V9ZM4 13H6V15H4V13ZM10 13H8V15H10V13Z" fill="white"/>
</mask>
<g mask="url(#mask0)">
<rect width="18" height="18" rx="4" fill="#C4CDD5"/>
</g>
</svg>
