<svg width="18" height="18" viewBox="0 0 18 18" fill="none" xmlns="http://www.w3.org/2000/svg">
<path d="M9 1.5C8.60218 1.5 8.22064 1.65804 7.93934 1.93934C7.65804 2.22064 7.5 2.60218 7.5 3C7.5 3.39782 7.65804 3.77936 7.93934 4.06066C8.22064 4.34196 8.60218 4.5 9 4.5C9.39782 4.5 9.77936 4.34196 10.0607 4.06066C10.342 3.77936 10.5 3.39782 10.5 3C10.5 2.60218 10.342 2.22064 10.0607 1.93934C9.77936 1.65804 9.39782 1.5 9 1.5ZM7.5 5.25C6.67125 5.25 6 5.92125 6 6.75V10.5H6.75V13.5H8.25V10.5H9.75V13.5H11.25V10.5H12V6.75C12 5.92125 11.3287 5.25 10.5 5.25H7.5ZM5.25 11.6411C3.61275 12.0154 2.25 12.7005 2.25 13.875C2.25 15.9473 6.49275 16.5 9 16.5C11.5072 16.5 15.75 15.9473 15.75 13.875C15.75 12.7005 14.3872 12.0154 12.75 11.6411V13.1924C13.596 13.4264 14.096 13.7003 14.231 13.875C13.9557 14.232 12.1845 15 9 15C5.8155 15 4.04429 14.232 3.76904 13.875C3.90404 13.7003 4.404 13.4264 5.25 13.1924V11.6411Z" fill="#C4CDD5"/>
</svg>
