<svg width="16" height="16" viewBox="0 0 16 16" fill="none" xmlns="http://www.w3.org/2000/svg">
<path d="M8 1.33325C7.63281 1.33325 7.33333 1.63273 7.33333 1.99992C7.33333 2.06242 7.35938 2.10929 7.375 2.16659C6.70573 2.38273 5.70573 2.87231 5.41667 3.99992H4.66667V5.33325H5.33333V7.20825L6.66667 6.60409V5.33325H7.33333V6.27075L8 5.99992L8.66667 6.33325V5.33325H9.33333V6.60409L10.6667 7.20825V5.33325H11.3333V3.99992H10.5833C10.2943 2.87231 9.29427 2.38273 8.625 2.16659C8.64063 2.10929 8.66667 2.06242 8.66667 1.99992C8.66667 1.63273 8.36719 1.33325 8 1.33325ZM8 6.66659L2 9.33325V10.6666H2.66667V13.3333C2.66667 14.0676 3.26563 14.6666 4 14.6666H6V13.4583C6 12.3905 6.80729 11.401 7.875 11.3333C9.00781 11.2655 10 12.2004 10 13.3333V14.6666H12C12.7344 14.6666 13.3333 14.0676 13.3333 13.3333V10.6666H14V9.33325L8 6.66659Z" fill="#C4CDD5"/>
</svg>
