<svg width="18" height="18" viewBox="0 0 18 18" fill="none" xmlns="http://www.w3.org/2000/svg">
<path d="M15.6 3H2.4C1.737 3 1.2 3.537 1.2 4.2V13.8C1.2 14.463 1.737 15 2.4 15H15.6C16.263 15 16.8 14.463 16.8 13.8V4.2C16.8 3.537 16.263 3 15.6 3ZM4.8 12.6H3C2.6688 12.6 2.4 12.3312 2.4 12C2.4 11.6688 2.6688 11.4 3 11.4H4.8V12.6ZM6 7.2H3V4.8H6V7.2ZM8.4 6C8.4 5.6688 8.6688 5.4 9 5.4H14.4C14.7312 5.4 15 5.6688 15 6C15 6.3312 14.7312 6.6 14.4 6.6H9C8.6688 6.6 8.4 6.3312 8.4 6ZM12 12.6H9.6V11.4H12V12.6ZM8.4 12.6H6V11.4H8.4V12.6ZM15 12.6H13.2V11.4H15C15.3312 11.4 15.6 11.6688 15.6 12C15.6 12.3312 15.3312 12.6 15 12.6Z" fill="#C4CDD5"/>
</svg>
