<svg width="18" height="18" viewBox="0 0 18 18" fill="none" xmlns="http://www.w3.org/2000/svg">
<path fill-rule="evenodd" clip-rule="evenodd" d="M1 9C1 4.6 4.6 1 9 1C13.4 1 17 4.6 17 9C17 13.4 13.4 17 9 17C4.6 17 1 13.4 1 9ZM15 9C15 5.68 12.32 3 9 3C5.68 3 3 5.68 3 9C3 12.32 5.68 15 9 15C12.32 15 15 12.32 15 9ZM13 5L7 7L5 13L11 11L13 5ZM10 9C10 8.44 9.56 8 9 8C8.44 8 8 8.44 8 9C8 9.56 8.44 10 9 10C9.56 10 10 9.56 10 9Z" fill="#C4CDD5"/>
<mask id="mask0" mask-type="alpha" maskUnits="userSpaceOnUse" x="1" y="1" width="16" height="16">
<path fill-rule="evenodd" clip-rule="evenodd" d="M1 9C1 4.6 4.6 1 9 1C13.4 1 17 4.6 17 9C17 13.4 13.4 17 9 17C4.6 17 1 13.4 1 9ZM15 9C15 5.68 12.32 3 9 3C5.68 3 3 5.68 3 9C3 12.32 5.68 15 9 15C12.32 15 15 12.32 15 9ZM13 5L7 7L5 13L11 11L13 5ZM10 9C10 8.44 9.56 8 9 8C8.44 8 8 8.44 8 9C8 9.56 8.44 10 9 10C9.56 10 10 9.56 10 9Z" fill="white"/>
</mask>
<g mask="url(#mask0)">
<rect width="18" height="18" rx="4" fill="#C4CDD5"/>
</g>
</svg>
