<svg width="18" height="18" viewBox="0 0 18 18" fill="none" xmlns="http://www.w3.org/2000/svg">
<path fill-rule="evenodd" clip-rule="evenodd" d="M8.67485 1.00234C8.47751 1.00226 8.29465 1.00217 8.12466 1.00244V1C6.30589 1.00203 5.95701 1.01423 5.05677 1.05489C4.1053 1.0986 3.5887 1.25718 3.2447 1.39136C2.7893 1.56865 2.46401 1.78009 2.12245 2.12164C1.7809 2.4632 1.56905 2.78849 1.39218 3.24389C1.25861 3.58789 1.09962 4.10428 1.05611 5.05576C1.00935 6.08449 1 6.39189 1 8.99787C1 11.6038 1.00935 11.9129 1.05611 12.9416C1.09942 13.8931 1.25861 14.4095 1.39218 14.7531C1.56946 15.2087 1.7809 15.5331 2.12245 15.8747C2.46401 16.2163 2.7893 16.4277 3.2447 16.6046C3.5889 16.7381 4.1053 16.8971 5.05677 16.941C6.0855 16.9878 6.39433 16.998 9.0001 16.998C11.6057 16.998 11.9147 16.9878 12.9434 16.941C13.8949 16.8975 14.4117 16.739 14.7553 16.6048C15.2109 16.4279 15.5352 16.2165 15.8767 15.8749C16.2183 15.5336 16.4301 15.2093 16.607 14.7539C16.7406 14.4103 16.8996 13.8939 16.9431 12.9424C16.9898 11.9137 17 11.6047 17 9.00031C17 6.39595 16.9898 6.08693 16.9431 5.0582C16.8998 4.10672 16.7406 3.59033 16.607 3.24674C16.4297 2.79133 16.2183 2.46604 15.8767 2.12449C15.5354 1.78293 15.2107 1.57149 14.7553 1.39462C14.4113 1.26105 13.8949 1.10206 12.9434 1.05855C11.9145 1.01179 11.6057 1.00244 9.0001 1.00244L8.67485 1.00234ZM13.0382 3.79343C13.0382 3.14671 13.5627 2.62279 14.2092 2.62279V2.62238C14.8557 2.62238 15.3803 3.14691 15.3803 3.79343C15.3803 4.43994 14.8557 4.96447 14.2092 4.96447C13.5627 4.96447 13.0382 4.43994 13.0382 3.79343ZM9.0001 3.99104C6.23249 3.99104 3.9886 6.23493 3.9886 9.00254C3.9886 11.7701 6.23249 14.013 9.0001 14.013C11.7677 14.013 14.0108 11.7701 14.0108 9.00254C14.0108 6.235 11.7676 3.99115 9.0001 3.99104ZM12.253 9.00254C12.253 7.20592 10.7965 5.74964 9.0001 5.74964C7.20348 5.74964 5.7472 7.20592 5.7472 9.00254C5.7472 10.799 7.20348 12.2554 9.0001 12.2554C10.7965 12.2554 12.253 10.799 12.253 9.00254Z" fill="#212B36"/>
<mask id="mask0" mask-type="alpha" maskUnits="userSpaceOnUse" x="1" y="1" width="16" height="16">
<path fill-rule="evenodd" clip-rule="evenodd" d="M8.67485 1.00234C8.47751 1.00226 8.29465 1.00217 8.12466 1.00244V1C6.30589 1.00203 5.95701 1.01423 5.05677 1.05489C4.1053 1.0986 3.5887 1.25718 3.2447 1.39136C2.7893 1.56865 2.46401 1.78009 2.12245 2.12164C1.7809 2.4632 1.56905 2.78849 1.39218 3.24389C1.25861 3.58789 1.09962 4.10428 1.05611 5.05576C1.00935 6.08449 1 6.39189 1 8.99787C1 11.6038 1.00935 11.9129 1.05611 12.9416C1.09942 13.8931 1.25861 14.4095 1.39218 14.7531C1.56946 15.2087 1.7809 15.5331 2.12245 15.8747C2.46401 16.2163 2.7893 16.4277 3.2447 16.6046C3.5889 16.7381 4.1053 16.8971 5.05677 16.941C6.0855 16.9878 6.39433 16.998 9.0001 16.998C11.6057 16.998 11.9147 16.9878 12.9434 16.941C13.8949 16.8975 14.4117 16.739 14.7553 16.6048C15.2109 16.4279 15.5352 16.2165 15.8767 15.8749C16.2183 15.5336 16.4301 15.2093 16.607 14.7539C16.7406 14.4103 16.8996 13.8939 16.9431 12.9424C16.9898 11.9137 17 11.6047 17 9.00031C17 6.39595 16.9898 6.08693 16.9431 5.0582C16.8998 4.10672 16.7406 3.59033 16.607 3.24674C16.4297 2.79133 16.2183 2.46604 15.8767 2.12449C15.5354 1.78293 15.2107 1.57149 14.7553 1.39462C14.4113 1.26105 13.8949 1.10206 12.9434 1.05855C11.9145 1.01179 11.6057 1.00244 9.0001 1.00244L8.67485 1.00234ZM13.0382 3.79343C13.0382 3.14671 13.5627 2.62279 14.2092 2.62279V2.62238C14.8557 2.62238 15.3803 3.14691 15.3803 3.79343C15.3803 4.43994 14.8557 4.96447 14.2092 4.96447C13.5627 4.96447 13.0382 4.43994 13.0382 3.79343ZM9.0001 3.99104C6.23249 3.99104 3.9886 6.23493 3.9886 9.00254C3.9886 11.7701 6.23249 14.013 9.0001 14.013C11.7677 14.013 14.0108 11.7701 14.0108 9.00254C14.0108 6.235 11.7676 3.99115 9.0001 3.99104ZM12.253 9.00254C12.253 7.20592 10.7965 5.74964 9.0001 5.74964C7.20348 5.74964 5.7472 7.20592 5.7472 9.00254C5.7472 10.799 7.20348 12.2554 9.0001 12.2554C10.7965 12.2554 12.253 10.799 12.253 9.00254Z" fill="white"/>
</mask>
<g mask="url(#mask0)">
<rect width="18" height="18" rx="4" fill="#F5F6F6"/>
</g>
</svg>
