<svg width="18" height="18" viewBox="0 0 18 18" fill="none" xmlns="http://www.w3.org/2000/svg">
<path fill-rule="evenodd" clip-rule="evenodd" d="M4.85808 2.7798C4.83582 1.7695 4.11335 1 2.94017 1C1.76699 1 1 1.7695 1 2.7798C1 3.76917 1.74432 4.56084 2.89565 4.56084H2.91757C4.11335 4.56084 4.85808 3.76917 4.85808 2.7798ZM4.63221 5.96724H1.20279V16.2712H4.63221V5.96724ZM13.0515 5.72528C15.3082 5.72528 17 7.19829 17 10.3632L16.9999 16.2712H13.5706V10.7586C13.5706 9.37393 13.0743 8.42907 11.8329 8.42907C10.8854 8.42907 10.3211 9.06604 10.0732 9.68126C9.98255 9.90175 9.96029 10.2089 9.96029 10.5169V16.2715H6.53046C6.53046 16.2715 6.57566 6.93438 6.53046 5.96751H9.96029V7.42698C10.4155 6.72539 11.2307 5.72528 13.0515 5.72528Z" fill="#212B36"/>
<mask id="mask0" mask-type="alpha" maskUnits="userSpaceOnUse" x="1" y="1" width="16" height="16">
<path fill-rule="evenodd" clip-rule="evenodd" d="M4.85808 2.7798C4.83582 1.7695 4.11335 1 2.94017 1C1.76699 1 1 1.7695 1 2.7798C1 3.76917 1.74432 4.56084 2.89565 4.56084H2.91757C4.11335 4.56084 4.85808 3.76917 4.85808 2.7798ZM4.63221 5.96724H1.20279V16.2712H4.63221V5.96724ZM13.0515 5.72528C15.3082 5.72528 17 7.19829 17 10.3632L16.9999 16.2712H13.5706V10.7586C13.5706 9.37393 13.0743 8.42907 11.8329 8.42907C10.8854 8.42907 10.3211 9.06604 10.0732 9.68126C9.98255 9.90175 9.96029 10.2089 9.96029 10.5169V16.2715H6.53046C6.53046 16.2715 6.57566 6.93438 6.53046 5.96751H9.96029V7.42698C10.4155 6.72539 11.2307 5.72528 13.0515 5.72528Z" fill="white"/>
</mask>
<g mask="url(#mask0)">
<rect width="18" height="18" rx="4" fill="#F5F6F6"/>
</g>
</svg>
