<svg width="18" height="17" viewBox="0 0 18 17" fill="none" xmlns="http://www.w3.org/2000/svg">
<path d="M4.00033 0.666748V3.5769L1.49382 5.03849C0.983815 5.33599 0.666992 5.88809 0.666992 6.47892V14.8334C0.666992 15.7526 1.41449 16.5001 2.33366 16.5001H15.667C16.5862 16.5001 17.3337 15.7526 17.3337 14.8334V6.47892C17.3337 5.88809 17.0168 5.33599 16.5068 5.03849L14.0003 3.5769V0.666748H4.00033ZM5.66699 2.33341H12.3337V8.44507L9.00033 10.5186L5.66699 8.44344V2.33341ZM7.33366 4.00008V5.66675H10.667V4.00008H7.33366ZM4.00033 5.50562V7.40666L2.42318 6.42521L4.00033 5.50562ZM14.0003 5.50724L15.5775 6.42684L14.0003 7.40828V5.50724ZM7.33366 6.50008V8.16675H10.667V6.50008H7.33366Z" fill="#637381"/>
</svg>
