<svg width="18" height="18" viewBox="0 0 18 18" fill="none" xmlns="http://www.w3.org/2000/svg">
<path d="M3 2.25C2.586 2.25 2.25 2.586 2.25 3V15C2.25 15.414 2.586 15.75 3 15.75H7.5C7.914 15.75 8.25 15.414 8.25 15V11.25H4.5C4.086 11.25 3.75 10.914 3.75 10.5V7.5C3.75 7.086 4.086 6.75 4.5 6.75H8.25V3C8.25 2.586 7.914 2.25 7.5 2.25H3ZM10.5 2.25C10.086 2.25 9.75 2.586 9.75 3V4.62891L10.8105 5.68945L11.25 6.12891L13.0605 7.93945C13.6463 8.5252 13.6463 9.4748 13.0605 10.0605L11.25 11.8711L10.8105 12.3105L9.75 13.3711V15C9.75 15.414 10.086 15.75 10.5 15.75H15C15.414 15.75 15.75 15.414 15.75 15V3C15.75 2.586 15.414 2.25 15 2.25H10.5ZM9.75 6.75V8.25H5.25V9.75H9.75V11.25L12 9L9.75 6.75Z" fill="#C4CDD5"/>
</svg>
