<svg width="14" height="14" viewBox="0 0 14 14" fill="none" xmlns="http://www.w3.org/2000/svg">
<g clip-path="url(#clip0)">
<path d="M13.0932 0.907786C11.888 -0.300317 9.92824 -0.300317 8.72312 0.907786L0.710862 8.91706C0.64822 8.9797 0.609441 9.06024 0.597509 9.14675L0.00389841 13.5436C-0.0139994 13.6689 0.0307451 13.7942 0.117251 13.8807C0.191825 13.9553 0.296229 14 0.400633 14C0.418531 14 0.436429 14 0.454327 13.9971L3.1032 13.6391C3.32394 13.6093 3.47906 13.4064 3.44923 13.1857C3.4194 12.9649 3.21656 12.8098 2.99582 12.8397L0.871943 13.126L1.28658 10.0595L4.51415 13.2871C4.58872 13.3617 4.69313 13.4064 4.79753 13.4064C4.90193 13.4064 5.00634 13.3647 5.08091 13.2871L13.0932 5.27784C13.6778 4.69317 14 3.9176 14 3.09132C14 2.26504 13.6778 1.48946 13.0932 0.907786ZM8.87823 1.89217L10.2236 3.23748L2.91229 10.5487L1.56697 9.20342L8.87823 1.89217ZM4.80051 12.434L3.48502 11.1185L10.7963 3.80723L12.1118 5.12272L4.80051 12.434ZM12.6726 4.54701L9.45395 1.32838C9.86261 0.991309 10.3727 0.806365 10.9096 0.806365C11.5211 0.806365 12.0939 1.045 12.5264 1.47455C12.9589 1.9041 13.1946 2.47981 13.1946 3.09132C13.1946 3.63124 13.0096 4.13834 12.6726 4.54701Z" fill="#212B36"/>
</g>
<defs>
<clipPath id="clip0">
<rect width="14" height="14" fill="white"/>
</clipPath>
</defs>
</svg>
