<svg width="20" height="24" viewBox="0 0 20 24" fill="none" xmlns="http://www.w3.org/2000/svg">
<path d="M2.31988 0.47998C1.52676 0.47998 0.879883 1.12686 0.879883 1.91998V22.08C0.879883 22.8731 1.52676 23.52 2.31988 23.52H17.6799C18.473 23.52 19.1199 22.8731 19.1199 22.08V1.91998C19.1199 1.12686 18.473 0.47998 17.6799 0.47998H2.31988ZM9.99988 4.31998C12.9118 4.31998 15.2799 6.68811 15.2799 9.59998C15.2799 12.5119 12.9118 14.88 9.99988 14.88C7.08801 14.88 4.71988 12.5119 4.71988 9.59998C4.71988 6.68811 7.08801 4.31998 9.99988 4.31998ZM9.51988 5.44498C8.82801 5.89498 8.19051 7.26186 8.09488 9.11998H9.51988V5.44498ZM10.4799 5.44498V9.11998H11.9049C11.8093 7.26186 11.1718 5.89498 10.4799 5.44498ZM7.97488 5.78998C6.74863 6.44623 5.87113 7.67623 5.70988 9.11998H7.13488C7.19488 7.79248 7.50238 6.63561 7.97488 5.78998ZM12.0249 5.78998C12.4974 6.63561 12.8049 7.79248 12.8649 9.11998H14.2899C14.1286 7.67623 13.253 6.44623 12.0249 5.78998ZM5.70988 10.08C5.87113 11.5237 6.74863 12.7537 7.97488 13.41C7.50238 12.5644 7.19488 11.4075 7.13488 10.08H5.70988ZM8.09488 10.08C8.19051 11.9381 8.82801 13.305 9.51988 13.755V10.08H8.09488ZM10.4799 10.08V13.755C11.1718 13.3069 11.8093 11.9381 11.9049 10.08H10.4799ZM12.8649 10.08C12.8049 11.4075 12.4974 12.5644 12.0249 13.41C13.2511 12.7537 14.1286 11.5237 14.2899 10.08H12.8649ZM4.23988 18.24H15.7599C16.0261 18.24 16.2399 18.4537 16.2399 18.72C16.2399 18.9862 16.0261 19.2 15.7599 19.2H4.23988C3.97551 19.2 3.75988 18.9862 3.75988 18.72C3.75988 18.4537 3.97551 18.24 4.23988 18.24Z" fill="#637381"/>
</svg>
