<svg width="30" height="30" viewBox="0 0 30 30" fill="none" xmlns="http://www.w3.org/2000/svg">
<path d="M22.9903 8.99023C22.7914 8.99029 22.597 9.04967 22.432 9.16078C22.267 9.27189 22.1388 9.42969 22.064 9.61401C21.9891 9.79832 21.9709 10.0008 22.0117 10.1955C22.0525 10.3902 22.1505 10.5683 22.2931 10.707L25.586 14H2.00008C1.86757 13.9981 1.73601 14.0226 1.61304 14.072C1.49007 14.1214 1.37815 14.1948 1.28378 14.2878C1.18941 14.3809 1.11447 14.4918 1.06333 14.614C1.01218 14.7363 0.98584 14.8675 0.98584 15C0.98584 15.1325 1.01218 15.2637 1.06333 15.386C1.11447 15.5082 1.18941 15.6191 1.28378 15.7122C1.37815 15.8052 1.49007 15.8786 1.61304 15.928C1.73601 15.9774 1.86757 16.0019 2.00008 16H25.586L22.2931 19.293C22.1971 19.3851 22.1205 19.4955 22.0677 19.6176C22.0149 19.7397 21.987 19.8712 21.9856 20.0042C21.9843 20.1373 22.0095 20.2692 22.0598 20.3924C22.1101 20.5156 22.1844 20.6275 22.2785 20.7216C22.3726 20.8156 22.4845 20.89 22.6077 20.9403C22.7309 20.9906 22.8628 21.0158 22.9959 21.0144C23.1289 21.0131 23.2603 20.9852 23.3825 20.9324C23.5046 20.8796 23.615 20.803 23.7071 20.707L28.6192 15.7949C28.7413 15.7019 28.8404 15.5819 28.9087 15.4444C28.977 15.3069 29.0127 15.1555 29.0131 15.0019C29.0135 14.8484 28.9785 14.6968 28.9109 14.559C28.8433 14.4211 28.7448 14.3007 28.6231 14.207C28.6212 14.2057 28.6192 14.2044 28.6173 14.2031L23.7071 9.29297C23.6139 9.19717 23.5025 9.12103 23.3794 9.06903C23.2562 9.01704 23.124 8.99024 22.9903 8.99023Z" fill="#637381"/>
</svg>
