<svg width="52" height="52" viewBox="0 0 52 52" fill="none" xmlns="http://www.w3.org/2000/svg">
<path d="M23 0C10.3182 0 0 10.3173 0 23C0 35.6827 10.3182 46 23 46C35.6818 46 46 35.6827 46 23C46 10.3173 35.6818 0 23 0ZM23 44.2308C11.2939 44.2308 1.76923 34.7061 1.76923 23C1.76923 11.2939 11.2939 1.76923 23 1.76923C34.7061 1.76923 44.2308 11.2939 44.2308 23C44.2308 34.7061 34.7061 44.2308 23 44.2308Z" fill="#637381"/>
<path d="M33.8383 13.5664L20.2426 28.8615L12.052 22.3091C11.6716 22.0039 11.1134 22.0667 10.8091 22.4471C10.5039 22.8293 10.5658 23.3857 10.9471 23.6909L19.7933 30.7678C19.956 30.8978 20.1515 30.9615 20.3461 30.9615C20.5903 30.9615 20.8336 30.8607 21.0078 30.6643L35.1617 14.7412C35.4863 14.3768 35.4536 13.8168 35.0883 13.493C34.722 13.1675 34.1638 13.2002 33.8383 13.5664Z" fill="#637381"/>
</svg>
