<svg width="24" height="24" viewBox="0 0 24 24" fill="none" xmlns="http://www.w3.org/2000/svg">
<path d="M3.19961 4C2.31561 4 1.59961 4.716 1.59961 5.6V18.4C1.59961 19.284 2.31561 20 3.19961 20H20.7996C21.6836 20 22.3996 19.284 22.3996 18.4V5.6C22.3996 4.716 21.6836 4 20.7996 4H3.19961ZM18.3996 6.4C19.2836 6.4 19.9996 7.116 19.9996 8C19.9996 8.884 19.2836 9.6 18.3996 9.6C17.5156 9.6 16.7996 8.884 16.7996 8C16.7996 7.116 17.5156 6.4 18.3996 6.4ZM3.99961 8L7.97773 11.9781L8.79961 12.8L9.72461 13.725C10.0622 14.0626 10.6073 14.0595 10.9449 13.7219C11.2833 13.3843 11.2833 12.8353 10.9449 12.4969L10.023 11.5766L11.1996 10.4L13.5777 12.7781L15.3246 14.525C15.6622 14.8626 16.2073 14.8595 16.5449 14.5219C16.8833 14.1843 16.8833 13.6353 16.5449 13.2969L16.423 13.1766L17.5996 12L19.9996 14.4V17.6H3.99961V8Z" fill="#C4CDD5"/>
</svg>
