<svg width="24" height="24" viewBox="0 0 24 24" fill="none" xmlns="http://www.w3.org/2000/svg">
<path d="M12 2C6.477 2 2 6.477 2 12C2 17.523 6.477 22 12 22C17.523 22 22 17.523 22 12C22 6.477 17.523 2 12 2ZM14 9.5C14 8.672 14.672 8 15.5 8C16.328 8 17 8.672 17 9.5C17 9.776 16.776 10 16.5 10H14.5C14.224 10 14 9.776 14 9.5ZM7 9.5C7 8.672 7.672 8 8.5 8C9.328 8 10 8.672 10 9.5C10 9.776 9.776 10 9.5 10H7.5C7.224 10 7 9.776 7 9.5ZM12 17.5C9.856 17.5 8.008 15.557 7.103 12.749C6.985 12.38 7.249 12 7.636 12H16.364C16.751 12 17.015 12.38 16.897 12.749C15.992 15.557 14.144 17.5 12 17.5Z" fill="#C4CDD5"/>
</svg>
