<svg width="28" height="28" viewBox="0 0 28 28" fill="none" xmlns="http://www.w3.org/2000/svg">
<path d="M21.3854 3.76229C20.3069 3.81479 19.2329 4.28291 18.3929 5.09229C18.3754 5.10979 18.3579 5.12729 18.3404 5.14479C18.3382 5.14697 18.325 5.1426 18.3229 5.14479C18.2988 5.17322 18.2747 5.20166 18.2529 5.23229C18.2288 5.26072 18.2047 5.28916 18.1829 5.31979L7.64786 15.9073C7.6238 15.9357 7.59973 15.9642 7.57786 15.9948C6.58692 17.0689 6.60661 18.7685 7.64786 19.8098C8.71536 20.8795 10.5004 20.8795 11.5679 19.8098C11.6204 19.7573 11.6663 19.6982 11.7079 19.6348C11.7582 19.5976 11.8041 19.556 11.8479 19.5123L19.7404 11.7248C20.0925 11.3923 20.191 10.8695 19.9832 10.432C19.7754 9.99448 19.3116 9.73854 18.8304 9.79979C18.5766 9.8326 18.3425 9.94854 18.1654 10.1323L10.2729 17.9198C10.24 17.9592 10.2116 17.9985 10.1854 18.0423C10.1744 18.0489 10.1613 18.0532 10.1504 18.0598C10.1438 18.0707 10.1394 18.0839 10.1329 18.0948C10.076 18.1298 10.0235 18.1714 9.97536 18.2173C9.76317 18.4295 9.45255 18.4317 9.24036 18.2173C9.02817 18.0051 9.02598 17.6967 9.24036 17.4823L19.9329 6.73729C19.9569 6.70885 19.981 6.68041 20.0029 6.64979C20.9238 5.80104 22.1532 5.8076 22.8379 6.49229C22.886 6.53822 22.9385 6.57979 22.9954 6.61479C23.0019 6.62135 23.0063 6.62572 23.0129 6.63229C23.0457 6.67604 23.0807 6.7176 23.1179 6.75479C23.7588 7.39572 23.6516 8.7476 22.7504 9.69479C22.7329 9.71229 22.7154 9.72979 22.6979 9.74729L11.1129 21.6298C11.0757 21.656 11.0407 21.6867 11.0079 21.7173C9.50505 23.2201 6.91723 23.4017 5.47786 21.9623C4.06692 20.5514 4.21348 17.9985 5.65286 16.4848C5.67692 16.4629 5.70098 16.4389 5.72286 16.4148L15.2604 6.98229C15.6125 6.64979 15.711 6.12697 15.5032 5.68947C15.2954 5.25197 14.8316 4.99604 14.3504 5.05729C14.0966 5.0901 13.8625 5.20604 13.6854 5.38979L4.20036 14.7698C4.18286 14.7873 4.16536 14.8048 4.14786 14.8223C4.1238 14.8507 4.09973 14.8792 4.07786 14.9098C1.81161 17.2592 1.50317 21.1573 3.88536 23.5373C6.25005 25.902 10.1263 25.6504 12.4779 23.4148C12.5019 23.3973 12.526 23.3798 12.5479 23.3623C12.5544 23.3557 12.5588 23.3514 12.5654 23.3448C12.5763 23.3339 12.5894 23.3207 12.6004 23.3098C12.6004 23.3032 12.6004 23.2989 12.6004 23.2923L12.6704 23.2223C12.6944 23.1939 12.7185 23.1654 12.7404 23.1348L24.3079 11.3223C24.391 11.2457 24.461 11.1582 24.5179 11.0598C25.9944 9.37104 26.316 6.80291 24.6929 5.17979C24.6644 5.15572 24.636 5.13166 24.6054 5.10979C24.555 5.03322 24.496 4.96322 24.4304 4.89979C23.6035 4.07291 22.49 3.7076 21.3854 3.76229Z" fill="#C4CDD5"/>
</svg>
