<svg width="40" height="40" viewBox="0 0 40 40" fill="none" xmlns="http://www.w3.org/2000/svg">
<path d="M20.0003 3.33313C18.6203 3.33313 17.5003 4.45313 17.5003 5.83313V6.99198C13.189 8.10329 10.0003 12.0078 10.0003 16.6665V26.6665L7.44173 28.5935H7.43848C7.20198 28.7441 7.0073 28.952 6.87244 29.1978C6.73759 29.4436 6.66693 29.7194 6.66699 29.9998C6.66699 30.4418 6.84259 30.8657 7.15515 31.1783C7.46771 31.4909 7.89163 31.6665 8.33366 31.6665H20.0003H31.667C32.109 31.6665 32.5329 31.4909 32.8455 31.1783C33.1581 30.8657 33.3337 30.4418 33.3337 29.9998C33.3337 29.7194 33.2631 29.4436 33.1282 29.1978C32.9934 28.952 32.7987 28.7441 32.5622 28.5935L30.0003 26.6665V16.6665C30.0003 12.0078 26.8117 8.10329 22.5003 6.99198V5.83313C22.5003 4.45313 21.3803 3.33313 20.0003 3.33313ZM16.667 33.3331C16.667 35.1665 18.167 36.6665 20.0003 36.6665C21.8337 36.6665 23.3337 35.1665 23.3337 33.3331H16.667Z" fill="#E84671"/>
</svg>
