<svg width="24" height="24" viewBox="0 0 24 24" fill="none" xmlns="http://www.w3.org/2000/svg">
<circle cx="12" cy="12" r="11.5" stroke="#637381"/>
<g clip-path="url(#clip0)">
<path d="M15.762 8.24082C15.0183 7.49525 13.8088 7.49525 13.0651 8.24082L8.12034 13.1837C8.08168 13.2223 8.05775 13.272 8.05039 13.3254L7.68405 16.0389C7.673 16.1163 7.70061 16.1936 7.754 16.247C7.80002 16.293 7.86446 16.3206 7.92889 16.3206C7.93993 16.3206 7.95098 16.3206 7.96203 16.3188L9.59676 16.0979C9.73299 16.0794 9.82872 15.9543 9.81031 15.818C9.7919 15.6818 9.66672 15.5861 9.53049 15.6045L8.21975 15.7812L8.47564 13.8888L10.4675 15.8806C10.5135 15.9267 10.578 15.9543 10.6424 15.9543C10.7068 15.9543 10.7713 15.9285 10.8173 15.8806L15.762 10.9378C16.1228 10.5769 16.3216 10.0983 16.3216 9.58837C16.3216 9.07844 16.1228 8.5998 15.762 8.24082ZM13.1608 8.84832L13.991 9.67858L9.47894 14.1907L8.64869 13.3604L13.1608 8.84832ZM10.6442 15.3541L9.8324 14.5423L14.3445 10.0302L15.1563 10.842L10.6442 15.3541ZM15.5024 10.4867L13.5161 8.50039C13.7683 8.29237 14.0831 8.17823 14.4144 8.17823C14.7918 8.17823 15.1453 8.3255 15.4122 8.59059C15.6792 8.85569 15.8246 9.21098 15.8246 9.58837C15.8246 9.92158 15.7105 10.2345 15.5024 10.4867Z" fill="#637381"/>
</g>
<defs>
<clipPath id="clip0">
<rect width="8.64" height="8.64" fill="white" transform="translate(7.68164 7.68005)"/>
</clipPath>
</defs>
</svg>
