<svg width="160" height="74" viewBox="0 0 160 74" fill="none" xmlns="http://www.w3.org/2000/svg">
<path d="M101.795 0.636181C88.4728 0.636181 77.6289 11.4764 77.6289 24.7991C77.6289 29.5519 79.5739 36.5533 82.06 40.7321L100.929 72.4631C101.108 72.7665 101.441 72.9566 101.795 72.9566C102.15 72.9566 102.483 72.7665 102.662 72.4631L121.531 40.7321C124.017 36.5496 125.962 29.5519 125.962 24.7991C125.958 11.4764 115.118 0.636181 101.795 0.636181ZM112.149 31.7053C111.173 33.3396 109.828 34.6229 108.113 35.5479C106.398 36.4765 104.475 36.9372 102.34 36.9372C100.205 36.9372 98.282 36.4728 96.5673 35.5479C94.8526 34.6192 93.5072 33.3359 92.531 31.6907C91.5548 30.0455 91.0649 28.2065 91.0649 26.1737C91.0649 24.141 91.5548 22.302 92.531 20.6567C93.5072 19.0115 94.8526 17.7246 96.5673 16.7996C98.282 15.871 100.205 15.4103 102.34 15.4103C104.475 15.4103 106.398 15.8746 108.113 16.7996C109.828 17.7282 111.173 19.0079 112.149 20.6421C113.126 22.2764 113.615 24.1227 113.615 26.1737C113.615 28.2248 113.129 30.0711 112.149 31.7053Z" fill="#33b0e6"/>
<path d="M16.635 26.1006H20.313V34.4438C19.2381 35.3029 17.9804 35.9574 16.5436 36.418C15.1068 36.8787 13.6334 37.1054 12.1161 37.1054C9.98096 37.1054 8.05788 36.641 6.34319 35.7161C4.6285 34.7874 3.28307 33.5078 2.3069 31.8735C1.33073 30.2393 0.84082 28.3966 0.84082 26.3419C0.84082 24.2872 1.33073 22.4446 2.3069 20.8103C3.28307 19.1761 4.63581 17.8928 6.35781 16.9678C8.08347 16.0392 10.0212 15.5785 12.1746 15.5785C13.9295 15.5785 15.5235 15.8673 16.9604 16.445C18.3972 17.0226 19.6037 17.8709 20.5799 18.9859L18.1267 21.377C16.5326 19.783 14.6059 18.9859 12.3537 18.9859C10.8767 18.9859 9.56783 19.2967 8.41983 19.9146C7.27182 20.5325 6.37609 21.3989 5.72897 22.5177C5.08185 23.6328 4.75646 24.9088 4.75646 26.3456C4.75646 27.7422 5.08185 28.9962 5.72897 30.115C6.37609 31.2301 7.27548 32.1075 8.41983 32.7473C9.56783 33.3871 10.8657 33.7052 12.3245 33.7052C13.9588 33.7052 15.3956 33.3469 16.6313 32.6303V26.1006H16.635Z" fill="white"/>
<path d="M51.8866 15.8746H48.0587L40.1178 33.5224H29.3141V15.8746H25.4277V36.8092H38.6371H40.264H42.6441L44.7061 31.9649H55.1734L57.2683 36.8092H61.3375L51.8866 15.8746ZM46.0223 28.9121L49.9416 19.761L53.8901 28.9121H46.0223Z" fill="white"/>
<path d="M83.2299 36.8092L83.2006 22.9308L76.3236 34.4144H74.587L67.7063 23.1099V36.8092H63.999V15.8746H67.1981L75.5119 29.753L83.6759 15.8746H86.875L86.9042 36.8092H83.2299Z" fill="white"/>
<path d="M119.988 34.6704C118.372 33.0471 117.564 30.7182 117.564 27.6873V15.8746H121.454V27.5374C121.454 31.6468 123.228 33.6979 126.778 33.6979C130.306 33.6979 132.072 31.6432 132.072 27.5374V15.8746H135.9V27.6873C135.9 30.7182 135.095 33.0471 133.494 34.6704C131.889 36.2973 129.64 37.109 126.748 37.109C123.857 37.109 121.604 36.2973 119.988 34.6704Z" fill="white"/>
<path d="M155.039 36.8092L150.762 30.6779C150.583 30.6962 150.312 30.7072 149.954 30.7072H145.226V36.8092H141.344V15.8746H149.957C151.771 15.8746 153.354 16.1744 154.699 16.7703C156.045 17.3699 157.076 18.2254 157.796 19.3442C158.513 20.4593 158.871 21.7864 158.871 23.322C158.871 24.8977 158.487 26.2541 157.719 27.3912C156.951 28.5282 155.851 29.3764 154.414 29.9321L159.229 36.8128H155.039V36.8092ZM153.635 20.2399C152.758 19.5233 151.471 19.165 149.778 19.165H145.23V27.5081H149.778C151.471 27.5081 152.758 27.1462 153.635 26.415C154.513 25.6874 154.952 24.6564 154.952 23.3183C154.952 21.9838 154.513 20.9565 153.635 20.2399Z" fill="white"/>
<path d="M4.62063 50.3476C3.98448 49.993 3.47994 49.4994 3.11799 48.8742C2.75604 48.249 2.57324 47.5471 2.57324 46.7756C2.57324 46.0042 2.75604 45.3022 3.11799 44.6771C3.47994 44.0519 3.98082 43.5583 4.62063 43.2037C5.26044 42.849 5.97337 42.6699 6.76308 42.6699C7.55279 42.6699 8.26572 42.849 8.90919 43.2037C9.55265 43.5583 10.0535 44.0519 10.4191 44.6771C10.7811 45.3022 10.9639 46.0042 10.9639 46.7756C10.9639 47.5471 10.7811 48.249 10.4191 48.8742C10.0572 49.4994 9.55265 49.993 8.90919 50.3476C8.26572 50.7022 7.55279 50.8814 6.76308 50.8814C5.97337 50.8814 5.26044 50.7022 4.62063 50.3476ZM8.70079 50.0332C9.2821 49.7078 9.73546 49.2617 10.0682 48.6877C10.4009 48.1137 10.5654 47.4776 10.5654 46.772C10.5654 46.07 10.3972 45.4302 10.0682 44.8562C9.73546 44.2822 9.27845 43.8362 8.70079 43.5108C8.11948 43.1854 7.47601 43.0245 6.76308 43.0245C6.05015 43.0245 5.40669 43.189 4.83268 43.5108C4.25503 43.8362 3.80168 44.2859 3.46898 44.8562C3.13627 45.4302 2.97175 46.0664 2.97175 46.772C2.97175 47.4776 3.13627 48.1137 3.46898 48.6877C3.80168 49.2617 4.25503 49.7078 4.83268 50.0332C5.41034 50.3586 6.05381 50.5194 6.76308 50.5194C7.47236 50.5231 8.11948 50.3586 8.70079 50.0332Z" fill="white"/>
<path d="M19.5962 42.7138V50.8375H19.2708L13.5052 43.434V50.8375H13.1104V42.7138H13.4357L19.2013 50.1173V42.7138H19.5962Z" fill="white"/>
<path d="M25.5 42.7138H28.6332C29.4778 42.7138 30.2236 42.8893 30.8781 43.2366C31.5325 43.5839 32.037 44.0665 32.399 44.6807C32.7573 45.295 32.9401 45.9933 32.9401 46.7757C32.9401 47.5581 32.7609 48.2564 32.399 48.8706C32.0407 49.4848 31.5325 49.9674 30.8781 50.3147C30.2236 50.6621 29.4778 50.8375 28.6332 50.8375H25.5V42.7138ZM28.6076 50.4756C29.3974 50.4756 30.0883 50.3184 30.6806 50.0003C31.2729 49.6822 31.7299 49.2435 32.0553 48.6841C32.3807 48.1247 32.5416 47.4886 32.5416 46.7757C32.5416 46.0627 32.3807 45.4266 32.0553 44.8672C31.7299 44.3078 31.2729 43.8691 30.6806 43.551C30.0883 43.2329 29.3974 43.0757 28.6076 43.0757H25.8912V50.4793H28.6076V50.4756Z" fill="white"/>
<path d="M40.5707 50.4756V50.8339H35.083V42.7101H40.4099V43.0684H35.4779V46.527H39.8871V46.8853H35.4779V50.4719H40.5707V50.4756Z" fill="white"/>
<path d="M50.5741 50.8339L50.5631 43.5108L47.0021 49.7078H46.7937L43.2218 43.5364V50.8339H42.8379V42.7101H43.1633L46.8998 49.2069L50.6253 42.7101H50.9507L50.9617 50.8339H50.5741Z" fill="white"/>
<path d="M58.9062 48.4574H54.0436L52.9541 50.8375H52.5264L56.2848 42.7138H56.6687L60.4271 50.8375H59.9993L58.9062 48.4574ZM58.7526 48.1211L56.4786 43.1671L54.1935 48.1211H58.7526Z" fill="white"/>
<path d="M68.4888 42.7138V50.8375H68.1634L62.3978 43.434V50.8375H62.0029V42.7138H62.3283L68.0939 50.1173V42.7138H68.4888Z" fill="white"/>
<path d="M71.457 42.7138H74.5903C75.4348 42.7138 76.1807 42.8893 76.8351 43.2366C77.4895 43.5839 77.9941 44.0665 78.356 44.6807C78.7143 45.295 78.8971 45.9933 78.8971 46.7757C78.8971 47.5581 78.718 48.2564 78.356 48.8706C77.9977 49.4848 77.4895 49.9674 76.8351 50.3147C76.1807 50.6621 75.4348 50.8375 74.5903 50.8375H71.457V42.7138ZM74.5683 50.4756C75.358 50.4756 76.049 50.3184 76.6413 50.0003C77.2336 49.6822 77.6906 49.2435 78.016 48.6841C78.3414 48.1247 78.5022 47.4886 78.5022 46.7757C78.5022 46.0627 78.3414 45.4266 78.016 44.8672C77.6906 44.3078 77.2336 43.8691 76.6413 43.551C76.049 43.2329 75.358 43.0757 74.5683 43.0757H71.8519V50.4793H74.5683V50.4756Z" fill="white"/>
<path d="M97.1093 22.96C101.705 21.4464 105.434 21.6036 110.118 23.2415C111.317 23.6583 111.225 23.7899 110.004 23.5633C105.573 22.748 100.623 23.6949 97.7162 24.8063C95.5482 25.5448 94.9193 23.545 97.1093 22.96Z" fill="white"/>
<path d="M104.227 26.6344C104.282 26.4698 104.337 26.3053 104.337 26.1408C101.588 28.0639 99.7741 28.5026 96.9188 27.2413C96.7542 28.009 95.4344 28.5611 94.4473 28.6159C95.2699 28.6708 96.0962 28.5611 96.9188 28.2321C96.5349 29.274 95.8183 29.7713 95.0505 30.2648C95.9865 29.9358 96.9188 29.6067 97.6353 28.5063C97.5805 29.5519 97.1418 30.4293 96.5897 31.2556C97.2478 30.5975 97.9096 29.8809 98.2386 28.7293C98.3483 29.7749 98.1289 30.762 97.9096 31.8077C98.2934 30.8754 98.6225 29.8846 98.9004 28.7841C99.0649 29.7201 99.0649 30.6524 99.01 31.5883C99.2842 30.7621 99.5036 29.8846 99.5584 29.0035C99.8326 29.8298 100.217 30.5975 100.714 31.3105C100.44 30.5427 100.275 29.8261 100.385 29.0583C100.769 29.9394 101.595 30.6524 102.527 31.4201C101.759 30.5975 101.152 29.7164 101.043 28.7841C101.979 29.8846 103.35 30.4878 104.724 30.8717C103.514 30.2685 102.363 29.4971 101.701 28.4551C102.966 29.2229 104.834 29.5556 106.702 29.8298C105.163 29.391 103.569 29.0035 102.417 27.9067C104.286 28.4551 106.538 28.5099 108.794 28.6196C106.816 28.2906 104.838 28.0164 103.244 27.1901C105.222 27.7933 107.419 27.6288 109.675 27.2998C107.744 27.2925 105.547 27.2925 104.227 26.6344Z" fill="white"/>
</svg>
