<svg width="40" height="40" viewBox="0 0 40 40" fill="none" xmlns="http://www.w3.org/2000/svg">
<path d="M32.9592 3.19995H7.03922C4.91922 3.19995 3.19922 4.91995 3.19922 7.03995V32.9599C3.19922 35.0799 4.91922 36.7999 7.03922 36.7999H32.9592C35.0792 36.7999 36.7992 35.0799 36.7992 32.9599V7.03995C36.7992 4.91995 35.0792 3.19995 32.9592 3.19995ZM26.7992 7.99995C29.6712 7.99995 31.9992 10.328 31.9992 13.2C31.9992 16.0719 29.6712 18.3999 26.7992 18.3999C23.9272 18.3999 21.5992 16.0719 21.5992 13.2C21.5992 10.328 23.9272 7.99995 26.7992 7.99995ZM17.6472 10.504L10.5032 17.6479C9.79122 17.2159 9.18322 16.608 8.75922 15.896L15.8952 8.75195C16.6072 9.18395 17.2152 9.79195 17.6472 10.504ZM13.1992 7.99995C13.7272 7.99995 14.2392 8.07995 14.7272 8.22395L8.22322 14.7199C8.07922 14.2399 7.99922 13.728 7.99922 13.2C7.99922 10.328 10.3272 7.99995 13.1992 7.99995ZM13.1992 31.9999C10.3272 31.9999 7.99922 29.6719 7.99922 26.7999C7.99922 23.9279 10.3272 21.5999 13.1992 21.5999C16.0712 21.5999 18.3992 23.9279 18.3992 26.7999C18.3992 29.6719 16.0712 31.9999 13.1992 31.9999ZM13.1992 18.3999C12.6712 18.3999 12.1592 18.3199 11.6712 18.1759L18.1752 11.672C18.3192 12.16 18.3992 12.672 18.3992 13.2C18.3992 16.0719 16.0712 18.3999 13.1992 18.3999ZM21.5992 26.7999C21.5992 23.9279 23.9272 21.5999 26.7992 21.5999C27.3272 21.5999 27.8392 21.6799 28.3272 21.8239L21.8232 28.3279C21.6792 27.8399 21.5992 27.3279 21.5992 26.7999ZM22.3512 29.4959L29.4952 22.3519C30.2072 22.7839 30.8152 23.3919 31.2472 24.1039L24.1032 31.2479C23.3912 30.8159 22.7832 30.2079 22.3512 29.4959ZM26.7992 31.9999C26.2712 31.9999 25.7592 31.9199 25.2712 31.7759L31.7752 25.2719C31.9192 25.7599 31.9992 26.2719 31.9992 26.7999C31.9992 29.6719 29.6712 31.9999 26.7992 31.9999Z" fill="#E84671"/>
</svg>
