<svg width="14" height="18" viewBox="0 0 14 18" fill="none" xmlns="http://www.w3.org/2000/svg">
<path d="M6.99967 0.666748C6.30967 0.666748 5.74967 1.22675 5.74967 1.91675V2.49618C3.59399 3.05183 1.99967 5.00408 1.99967 7.33342V12.3334L0.720378 13.297H0.71875C0.600502 13.3723 0.50316 13.4762 0.435733 13.5991C0.368307 13.722 0.332975 13.8599 0.333008 14.0001C0.333008 14.2211 0.420805 14.4331 0.577086 14.5893C0.733366 14.7456 0.945327 14.8334 1.16634 14.8334H6.99967H12.833C13.054 14.8334 13.266 14.7456 13.4223 14.5893C13.5785 14.4331 13.6663 14.2211 13.6663 14.0001C13.6664 13.8599 13.631 13.722 13.5636 13.5991C13.4962 13.4762 13.3988 13.3723 13.2806 13.297L11.9997 12.3334V7.33342C11.9997 5.00408 10.4054 3.05183 8.24967 2.49618V1.91675C8.24967 1.22675 7.68967 0.666748 6.99967 0.666748ZM5.33301 15.6667C5.33301 16.5834 6.08301 17.3334 6.99967 17.3334C7.91634 17.3334 8.66634 16.5834 8.66634 15.6667H5.33301Z" fill="#637381"/>
</svg>
