<svg width="20" height="20" viewBox="0 0 20 20" fill="none" xmlns="http://www.w3.org/2000/svg">
<path d="M10 0.799805C8.15625 0.799805 6.68125 1.82637 6.4375 3.1998H1.2C0.539062 3.1998 0 3.73887 0 4.3998V11.1998C0 11.4201 0.179688 11.5998 0.4 11.5998H8C8 10.9389 8.53906 10.3998 9.2 10.3998H10.8C11.4609 10.3998 12 10.9389 12 11.5998H19.6C19.8203 11.5998 20 11.4201 20 11.1998V4.3998C20 3.73887 19.4609 3.1998 18.8 3.1998H13.5625C13.3188 1.82637 11.8438 0.799805 10 0.799805ZM10 1.5998C11.3797 1.5998 12.5 2.2748 12.75 3.1998H7.25C7.5 2.2748 8.62031 1.5998 10 1.5998ZM9.2 11.1998C8.97969 11.1998 8.8 11.3795 8.8 11.5998V12.3998C8.8 12.6201 8.97969 12.7998 9.2 12.7998H10.8C11.0203 12.7998 11.2 12.6201 11.2 12.3998V11.5998C11.2 11.3795 11.0203 11.1998 10.8 11.1998H9.2ZM0 12.3248V17.9998C0 18.6607 0.539062 19.1998 1.2 19.1998H18.8C19.4609 19.1998 20 18.6607 20 17.9998V12.3248C19.875 12.3701 19.7406 12.3998 19.6 12.3998H12C12 13.0607 11.4609 13.5998 10.8 13.5998H9.2C8.53906 13.5998 8 13.0607 8 12.3998H0.4C0.259375 12.3998 0.125 12.3701 0 12.3248Z" fill="#637381"/>
</svg>
