<svg width="18" height="18" viewBox="0 0 18 18" fill="none" xmlns="http://www.w3.org/2000/svg">
<path d="M16.9776 7.63977L14.85 7.29201C14.7254 6.86505 14.5551 6.45465 14.342 6.06621L15.584 4.29609C15.6845 4.15317 15.6672 3.95841 15.5437 3.83457L14.1437 2.43525C14.0187 2.31069 13.8222 2.29449 13.6789 2.39781L11.9354 3.65097C11.5434 3.43425 11.1294 3.26217 10.6999 3.13725L10.3287 1.01829C10.2985 0.846215 10.1491 0.720215 9.97414 0.720215H7.99414C7.81774 0.720215 7.66726 0.848015 7.63882 1.02225L7.29466 3.12969C6.86266 3.25389 6.44794 3.42417 6.05734 3.63801L4.31854 2.39601C4.1749 2.29341 3.97942 2.30997 3.8545 2.43417L2.45518 3.83349C2.3317 3.95697 2.31442 4.15137 2.41486 4.29429L3.6385 6.04497C3.4207 6.43917 3.24718 6.85641 3.12082 7.29057L1.02166 7.64013C0.848143 7.66893 0.720703 7.81941 0.720703 7.99509V9.97509C0.720703 10.1497 0.845983 10.2991 1.0177 10.3297L3.11686 10.7019C3.2425 11.135 3.41602 11.5523 3.63454 11.9475L2.39578 13.6802C2.29354 13.8231 2.30974 14.0193 2.43394 14.1443L3.83362 15.545C3.9571 15.6685 4.15186 15.6858 4.29478 15.5853L6.04798 14.3574C6.44146 14.5737 6.85726 14.7455 7.28818 14.87L7.63954 16.98C7.66798 17.1531 7.8181 17.2802 7.99414 17.2802H9.97414C10.1487 17.2802 10.2981 17.1549 10.3284 16.9832L10.7046 14.8628C11.1362 14.7357 11.5499 14.5629 11.9394 14.3462L13.7052 15.585C13.8485 15.6861 14.0429 15.6685 14.1667 15.545L15.5664 14.1443C15.6909 14.0193 15.7071 13.8224 15.6038 13.6791L14.3445 11.9306C14.558 11.5418 14.7276 11.1307 14.8511 10.7037L16.9815 10.3297C17.154 10.2995 17.2793 10.1497 17.2793 9.97509V7.99509C17.2796 7.81869 17.1518 7.66821 16.9776 7.63977ZM8.99998 11.5202C7.60822 11.5202 6.47998 10.392 6.47998 9.00021C6.47998 7.60845 7.60822 6.48021 8.99998 6.48021C10.3917 6.48021 11.52 7.60845 11.52 9.00021C11.52 10.392 10.3917 11.5202 8.99998 11.5202Z" fill="white"/>
</svg>
