<svg width="50" height="50" viewBox="0 0 50 50" fill="none" xmlns="http://www.w3.org/2000/svg">
<circle cx="25" cy="25" r="24.5" stroke="#637381"/>
<g clip-path="url(#clip0)">
<path d="M32.834 17.1664C31.2846 15.6131 28.7648 15.6131 27.2154 17.1664L16.9139 27.4641C16.8334 27.5446 16.7835 27.6481 16.7682 27.7594L16.005 33.4125C15.982 33.5736 16.0395 33.7347 16.1507 33.8459C16.2466 33.9418 16.3808 33.9993 16.5151 33.9993C16.5381 33.9993 16.5611 33.9993 16.5841 33.9955L19.9898 33.5353C20.2736 33.4969 20.473 33.2361 20.4347 32.9523C20.3963 32.6685 20.1355 32.4691 19.8517 32.5074L17.121 32.8756L17.6541 28.933L21.8039 33.0827C21.8998 33.1786 22.034 33.2361 22.1682 33.2361C22.3025 33.2361 22.4367 33.1824 22.5326 33.0827L32.834 22.7851C33.5858 22.0333 34 21.0362 34 19.9738C34 18.9115 33.5858 17.9143 32.834 17.1664ZM27.4148 18.4321L29.1445 20.1617L19.7443 29.5619L18.0147 27.8322L27.4148 18.4321ZM22.1721 31.9858L20.4807 30.2945L29.8809 20.8943L31.5722 22.5856L22.1721 31.9858ZM32.2933 21.8454L28.155 17.7072C28.6805 17.2738 29.3363 17.036 30.0266 17.036C30.8129 17.036 31.5492 17.3428 32.1053 17.8951C32.6615 18.4474 32.9644 19.1876 32.9644 19.9738C32.9644 20.668 32.7267 21.32 32.2933 21.8454Z" fill="#637381"/>
</g>
<defs>
<clipPath id="clip0">
<rect width="18" height="18" fill="white" transform="translate(16 16)"/>
</clipPath>
</defs>
</svg>
