<svg width="18" height="18" viewBox="0 0 18 18" fill="none" xmlns="http://www.w3.org/2000/svg">
<path fill-rule="evenodd" clip-rule="evenodd" d="M3 7C3 3.68 5.68 1 9 1C12.32 1 15 3.68 15 7C15 11 9 17 9 17C9 17 3 11 3 7ZM13 7C13 4.8 11.22 3 9 3C6.8 3 5 4.8 5 7C5 9.22 6.8 11 9 11C11.22 11 13 9.22 13 7Z" fill="#C4CDD5"/>
<mask id="mask0" mask-type="alpha" maskUnits="userSpaceOnUse" x="3" y="1" width="12" height="16">
<path fill-rule="evenodd" clip-rule="evenodd" d="M3 7C3 3.68 5.68 1 9 1C12.32 1 15 3.68 15 7C15 11 9 17 9 17C9 17 3 11 3 7ZM13 7C13 4.8 11.22 3 9 3C6.8 3 5 4.8 5 7C5 9.22 6.8 11 9 11C11.22 11 13 9.22 13 7Z" fill="white"/>
</mask>
<g mask="url(#mask0)">
<rect width="18" height="18" rx="4" fill="#C4CDD5"/>
</g>
</svg>
