<svg width="180" height="180" viewBox="0 0 180 180" fill="none" xmlns="http://www.w3.org/2000/svg">
<circle cx="90" cy="90" r="88.5" fill="#637381" stroke="white" stroke-width="3"/>
<path d="M84.9999 73.3335L81.6666 76.6668H76.6666C74.8306 76.6668 73.3333 78.1642 73.3333 80.0002V100C73.3333 101.836 74.8306 103.333 76.6666 103.333H103.333C105.169 103.333 106.667 101.836 106.667 100V80.0002C106.667 78.1642 105.169 76.6668 103.333 76.6668H98.3333L94.9999 73.3335H84.9999ZM89.9999 81.6668C94.6679 81.6668 98.3333 85.3322 98.3333 90.0002C98.3333 94.6681 94.6679 98.3335 89.9999 98.3335C85.332 98.3335 81.6666 94.6681 81.6666 90.0002C81.6666 85.3322 85.332 81.6668 89.9999 81.6668ZM89.9999 84.1668C86.7773 84.1668 84.1666 86.7775 84.1666 90.0002C84.1666 93.2228 86.7773 95.8335 89.9999 95.8335C93.2226 95.8335 95.8333 93.2228 95.8333 90.0002C95.8333 86.7775 93.2226 84.1668 89.9999 84.1668Z" fill="white"/>
</svg>
