<svg width="24" height="24" viewBox="0 0 24 24" fill="none" xmlns="http://www.w3.org/2000/svg">
<path d="M12 0C5.3832 0 0 5.3832 0 12C0 18.6168 5.3832 24 12 24C18.6168 24 24 18.6168 24 12C24 5.3832 18.6168 0 12 0ZM12 4.8C14.04 4.8 15.6 6.36 15.6 8.4V9.6C16.32 9.6 16.8 10.08 16.8 10.8V15.6C16.8 16.32 16.32 16.8 15.6 16.8H8.4C7.68 16.8 7.2 16.32 7.2 15.6V10.8C7.2 10.08 7.68 9.6 8.4 9.6V8.4C8.4 6.36 9.96 4.8 12 4.8ZM12 6.6C11.04 6.6 10.2 7.44 10.2 8.4V9.6H12H13.8V8.4C13.8 7.44 12.96 6.6 12 6.6ZM12 12C11.6817 12 11.3765 12.1264 11.1515 12.3515C10.9264 12.5765 10.8 12.8817 10.8 13.2C10.8 13.5183 10.9264 13.8235 11.1515 14.0485C11.3765 14.2736 11.6817 14.4 12 14.4C12.3183 14.4 12.6235 14.2736 12.8485 14.0485C13.0736 13.8235 13.2 13.5183 13.2 13.2C13.2 12.8817 13.0736 12.5765 12.8485 12.3515C12.6235 12.1264 12.3183 12 12 12Z" fill="white"/>
</svg>
