<svg width="24" height="24" viewBox="0 0 24 24" fill="none" xmlns="http://www.w3.org/2000/svg">
<path d="M8.99991 11.9999C8.99991 10.3459 10.3459 8.99991 11.9999 8.99991H15.9998V0.999975C15.9998 0.44798 15.5528 0 14.9999 0H0.999975C0.446996 0 0 0.44798 0 0.999975V22.9997C0 23.5517 0.446996 23.9997 0.999975 23.9997H14.9999C15.5528 23.9997 15.9998 23.5517 15.9998 22.9997V15.9998V14.9999H11.9999C10.3459 14.9999 8.99991 13.6539 8.99991 11.9999Z" fill="#33b0e6"/>
<path d="M23.774 12.6315C23.777 12.6278 23.7795 12.6238 23.7825 12.6201C23.7996 12.5984 23.8163 12.5764 23.8316 12.5533C23.8388 12.5425 23.8449 12.5313 23.8517 12.5202C23.8618 12.5037 23.8722 12.4873 23.8813 12.4701C23.8888 12.4561 23.8952 12.4415 23.902 12.4272C23.909 12.4123 23.9165 12.3977 23.9228 12.3825C23.9296 12.3661 23.9351 12.3493 23.941 12.3327C23.9458 12.3189 23.9512 12.3053 23.9555 12.2912C23.9615 12.2716 23.966 12.2517 23.9707 12.2319C23.9735 12.2203 23.9769 12.2089 23.9793 12.1971C23.9848 12.1699 23.9886 12.1425 23.9918 12.115C23.9923 12.1102 23.9933 12.1056 23.9938 12.1009C24.0006 12.0336 24.0006 11.9659 23.9938 11.8986C23.9933 11.8939 23.9923 11.8893 23.9918 11.8845C23.9886 11.857 23.9847 11.8296 23.9793 11.8024C23.9769 11.7906 23.9735 11.7792 23.9707 11.7676C23.966 11.7477 23.9615 11.7279 23.9555 11.7083C23.9512 11.6942 23.9458 11.6806 23.941 11.6668C23.9351 11.6502 23.9296 11.6334 23.9228 11.617C23.9165 11.6018 23.9091 11.5872 23.902 11.5723C23.8952 11.558 23.8888 11.5435 23.8813 11.5294C23.8721 11.5122 23.8618 11.4958 23.8517 11.4793C23.8449 11.4682 23.8388 11.457 23.8316 11.4462C23.8163 11.4231 23.7996 11.4011 23.7825 11.3794C23.7795 11.3757 23.777 11.3717 23.774 11.368C23.7515 11.3404 23.7275 11.314 23.7022 11.289L19.7059 7.29275C19.315 6.90177 18.6829 6.90177 18.292 7.29275C17.901 7.68373 17.901 8.31574 18.292 8.70672L20.5849 10.9997H11.999C11.446 10.9997 10.999 11.4477 10.999 11.9997C10.999 12.5516 11.446 12.9996 11.999 12.9996H20.5849L18.292 15.2926C17.901 15.6836 17.901 16.3156 18.292 16.7066C18.487 16.9016 18.7429 16.9996 18.999 16.9996C19.255 16.9996 19.511 16.9016 19.706 16.7066L23.7022 12.7103C23.7275 12.6855 23.7514 12.6591 23.774 12.6315Z" fill="#33b0e6"/>
</svg>
