<svg width="40" height="40" viewBox="0 0 40 40" fill="none" xmlns="http://www.w3.org/2000/svg">
<path d="M37.5 29.1667C37.5 31.0075 36.0075 32.5 34.1667 32.5H5.83333C3.9925 32.5 2.5 31.0075 2.5 29.1667V10.8333C2.5 8.9925 3.9925 7.5 5.83333 7.5H34.1667C36.0075 7.5 37.5 8.9925 37.5 10.8333V29.1667Z" fill="#3F51B5"/>
<path d="M25.0003 28.3332C29.6027 28.3332 33.3337 24.6022 33.3337 19.9998C33.3337 15.3975 29.6027 11.6665 25.0003 11.6665C20.398 11.6665 16.667 15.3975 16.667 19.9998C16.667 24.6022 20.398 28.3332 25.0003 28.3332Z" fill="#FFC107"/>
<path d="M18.3447 24.9998C17.958 24.4857 17.6255 23.9298 17.3647 23.3332H21.8022C22.0338 22.8032 22.2155 22.2465 22.333 21.6665H16.8347C16.7247 21.1282 16.6663 20.5715 16.6663 19.9998H22.4997C22.4997 19.4282 22.4413 18.8715 22.3322 18.3332H16.8338C16.9522 17.7532 17.133 17.1965 17.3647 16.6665H21.8022C21.5413 16.0698 21.2097 15.514 20.8222 14.9998H18.3447C18.7088 14.5165 19.1197 14.0648 19.5788 13.6707C18.1222 12.424 16.2338 11.6665 14.1663 11.6665C9.56384 11.6665 5.83301 15.3973 5.83301 19.9998C5.83301 24.6023 9.56384 28.3332 14.1663 28.3332C16.8905 28.3332 19.3013 27.0207 20.8213 24.9998H18.3447Z" fill="#FF3D00"/>
</svg>
