<svg width="17" height="17" viewBox="0 0 17 17" fill="none" xmlns="http://www.w3.org/2000/svg">
<path fill-rule="evenodd" clip-rule="evenodd" d="M0 7.02C0 3.16 3.14 0.02 7 0.02L7.02 0C10.88 0 14.02 3.14 14.02 7C14.02 8.2 13.68 9.34 13.14 10.32C13.2553 10.3954 13.3626 10.4825 13.46 10.58L15.46 12.58C16.0262 13.0832 16.267 13.8587 16.0853 14.5941C15.9037 15.3295 15.3295 15.9037 14.5941 16.0853C13.8587 16.267 13.0832 16.0262 12.58 15.46L10.58 13.46C10.4855 13.3815 10.3985 13.2945 10.32 13.2C9.34 13.74 8.18 14.02 7 14.02C3.14 14.02 0 10.88 0 7.02ZM12 7.02C12 4.24 9.78 2.02 7 2.02L6.98 2.04C4.2 2.04 1.98 4.26 1.98 7.04C1.98 9.82 4.2 12.04 6.98 12.04C8.28 12.04 9.48 11.58 10.36 10.78C10.4385 10.6855 10.5255 10.5985 10.62 10.52L10.68 10.46C11.52 9.56 12 8.34 12 7.02Z" fill="#C4CDD5"/>
</svg>
