<svg width="14" height="14" viewBox="0 0 14 14" fill="none" xmlns="http://www.w3.org/2000/svg">
<rect width="14" height="14" fill="#121416"/>
<g clip-path="url(#clip0)">
<rect width="1440" height="3397" transform="translate(-112 -194)" fill="white"/>
<rect x="-61.5" y="-43.5" width="1339" height="177" fill="white" stroke="#C4CDD5"/>
<rect x="-11.5" y="-18.5" width="372" height="51" stroke="#C4CDD5"/>
<path d="M1 0.25C0.801088 0.25 0.610322 0.329018 0.46967 0.46967C0.329018 0.610322 0.25 0.801088 0.25 1C0.25 1.19891 0.329018 1.38968 0.46967 1.53033C0.610322 1.67098 0.801088 1.75 1 1.75C1.19891 1.75 1.38968 1.67098 1.53033 1.53033C1.67098 1.38968 1.75 1.19891 1.75 1C1.75 0.801088 1.67098 0.610322 1.53033 0.46967C1.38968 0.329018 1.19891 0.25 1 0.25ZM3.25 0.25V1.75H13.75V0.25H3.25ZM1 3.25C0.801088 3.25 0.610322 3.32902 0.46967 3.46967C0.329018 3.61032 0.25 3.80109 0.25 4C0.25 4.19891 0.329018 4.38968 0.46967 4.53033C0.610322 4.67098 0.801088 4.75 1 4.75C1.19891 4.75 1.38968 4.67098 1.53033 4.53033C1.67098 4.38968 1.75 4.19891 1.75 4C1.75 3.80109 1.67098 3.61032 1.53033 3.46967C1.38968 3.32902 1.19891 3.25 1 3.25ZM3.25 3.25V4.75H12.25V3.25H3.25ZM1 6.25C0.801088 6.25 0.610322 6.32902 0.46967 6.46967C0.329018 6.61032 0.25 6.80109 0.25 7C0.25 7.19891 0.329018 7.38968 0.46967 7.53033C0.610322 7.67098 0.801088 7.75 1 7.75C1.19891 7.75 1.38968 7.67098 1.53033 7.53033C1.67098 7.38968 1.75 7.19891 1.75 7C1.75 6.80109 1.67098 6.61032 1.53033 6.46967C1.38968 6.32902 1.19891 6.25 1 6.25ZM3.25 6.25V7.75H10.75V6.25H3.25ZM1 9.25C0.801088 9.25 0.610322 9.32902 0.46967 9.46967C0.329018 9.61032 0.25 9.80109 0.25 10C0.25 10.1989 0.329018 10.3897 0.46967 10.5303C0.610322 10.671 0.801088 10.75 1 10.75C1.19891 10.75 1.38968 10.671 1.53033 10.5303C1.67098 10.3897 1.75 10.1989 1.75 10C1.75 9.80109 1.67098 9.61032 1.53033 9.46967C1.38968 9.32902 1.19891 9.25 1 9.25ZM3.25 9.25V10.75H9.25V9.25H3.25ZM1 12.25C0.801088 12.25 0.610322 12.329 0.46967 12.4697C0.329018 12.6103 0.25 12.8011 0.25 13C0.25 13.1989 0.329018 13.3897 0.46967 13.5303C0.610322 13.671 0.801088 13.75 1 13.75C1.19891 13.75 1.38968 13.671 1.53033 13.5303C1.67098 13.3897 1.75 13.1989 1.75 13C1.75 12.8011 1.67098 12.6103 1.53033 12.4697C1.38968 12.329 1.19891 12.25 1 12.25ZM3.25 12.25V13.75H7.75V12.25H3.25Z" fill="#C4CDD5"/>
</g>
<defs>
<clipPath id="clip0">
<rect width="1440" height="3397" fill="white" transform="translate(-112 -194)"/>
</clipPath>
</defs>
</svg>
