<svg width="18" height="18" viewBox="0 0 18 18" fill="none" xmlns="http://www.w3.org/2000/svg">
<path fill-rule="evenodd" clip-rule="evenodd" d="M8.76891 5.51733L8.8036 6.08923L8.22555 6.0192C6.12147 5.75076 4.28329 4.84039 2.72257 3.31143L1.95955 2.55279L1.76302 3.11301C1.34683 4.36186 1.61273 5.68073 2.47979 6.56776C2.94223 7.05796 2.83818 7.12799 2.04048 6.8362C1.76302 6.74283 1.52024 6.6728 1.49712 6.70782C1.41619 6.78952 1.69365 7.85162 1.91331 8.27179C2.21389 8.85536 2.82662 9.42726 3.49715 9.76574L4.06363 10.0342L3.3931 10.0458C2.74569 10.0458 2.72257 10.0575 2.79194 10.3026C3.02315 11.0613 3.93646 11.8666 4.95382 12.2167L5.6706 12.4618L5.04631 12.8353C4.12144 13.3722 3.03472 13.6757 1.94799 13.699C1.42775 13.7107 1 13.7574 1 13.7924C1 13.9091 2.41043 14.5627 3.23125 14.8195C5.69372 15.5781 8.61862 15.2513 10.8152 13.9558C12.3759 13.0337 13.9366 11.2013 14.665 9.42726C15.058 8.48188 15.4511 6.7545 15.4511 5.92583C15.4511 5.38895 15.4858 5.31892 16.1332 4.67699C16.5147 4.3035 16.8731 3.895 16.9425 3.77829C17.0581 3.55653 17.0465 3.55653 16.4569 3.75494C15.4742 4.10509 15.3355 4.0584 15.8211 3.53319C16.1794 3.1597 16.6072 2.48276 16.6072 2.28434C16.6072 2.24933 16.4338 2.30769 16.2372 2.41273C16.0291 2.52944 15.5667 2.70451 15.2199 2.80956L14.5956 3.00797L14.0291 2.62281C13.717 2.41273 13.2777 2.1793 13.0464 2.10927C12.4568 1.94587 11.5551 1.96921 11.0233 2.15596C9.57817 2.68117 8.66487 4.03506 8.76891 5.51733Z" fill="#212B36"/>
<mask id="mask0" mask-type="alpha" maskUnits="userSpaceOnUse" x="1" y="2" width="16" height="14">
<path fill-rule="evenodd" clip-rule="evenodd" d="M8.76891 5.51733L8.8036 6.08923L8.22555 6.0192C6.12147 5.75076 4.28329 4.84039 2.72257 3.31143L1.95955 2.55279L1.76302 3.11301C1.34683 4.36186 1.61273 5.68073 2.47979 6.56776C2.94223 7.05796 2.83818 7.12799 2.04048 6.8362C1.76302 6.74283 1.52024 6.6728 1.49712 6.70782C1.41619 6.78952 1.69365 7.85162 1.91331 8.27179C2.21389 8.85536 2.82662 9.42726 3.49715 9.76574L4.06363 10.0342L3.3931 10.0458C2.74569 10.0458 2.72257 10.0575 2.79194 10.3026C3.02315 11.0613 3.93646 11.8666 4.95382 12.2167L5.6706 12.4618L5.04631 12.8353C4.12144 13.3722 3.03472 13.6757 1.94799 13.699C1.42775 13.7107 1 13.7574 1 13.7924C1 13.9091 2.41043 14.5627 3.23125 14.8195C5.69372 15.5781 8.61862 15.2513 10.8152 13.9558C12.3759 13.0337 13.9366 11.2013 14.665 9.42726C15.058 8.48188 15.4511 6.7545 15.4511 5.92583C15.4511 5.38895 15.4858 5.31892 16.1332 4.67699C16.5147 4.3035 16.8731 3.895 16.9425 3.77829C17.0581 3.55653 17.0465 3.55653 16.4569 3.75494C15.4742 4.10509 15.3355 4.0584 15.8211 3.53319C16.1794 3.1597 16.6072 2.48276 16.6072 2.28434C16.6072 2.24933 16.4338 2.30769 16.2372 2.41273C16.0291 2.52944 15.5667 2.70451 15.2199 2.80956L14.5956 3.00797L14.0291 2.62281C13.717 2.41273 13.2777 2.1793 13.0464 2.10927C12.4568 1.94587 11.5551 1.96921 11.0233 2.15596C9.57817 2.68117 8.66487 4.03506 8.76891 5.51733Z" fill="white"/>
</mask>
<g mask="url(#mask0)">
<rect width="18" height="18" rx="4" fill="#F5F6F6"/>
</g>
</svg>
