<svg width="32" height="32" viewBox="0 0 32 32" fill="none" xmlns="http://www.w3.org/2000/svg">
<path d="M16 1.06665C15.7272 1.06665 15.4543 1.17062 15.2458 1.37915L8.09163 8.53332H11.1083L16 3.64165L20.8916 8.53332H23.9083L16.7541 1.37915C16.5456 1.17062 16.2728 1.06665 16 1.06665ZM3.19997 10.6666C2.61117 10.6666 2.1333 11.1445 2.1333 11.7333V13.8666C2.1333 14.4554 2.61117 14.9333 3.19997 14.9333H3.37705L5.03538 24.8833C5.20712 25.9116 6.09742 26.6666 7.13955 26.6666H24.8583C25.9015 26.6666 26.7907 25.9116 26.9625 24.8833L28.6229 14.9333H28.8C29.3888 14.9333 29.8666 14.4554 29.8666 13.8666V11.7333C29.8666 11.1445 29.3888 10.6666 28.8 10.6666H3.19997ZM11.7333 14.9333C12.3232 14.9333 12.8 15.4101 12.8 16V22.4C12.8 22.9898 12.3232 23.4666 11.7333 23.4666C11.1434 23.4666 10.6666 22.9898 10.6666 22.4V16C10.6666 15.4101 11.1434 14.9333 11.7333 14.9333ZM16 14.9333C16.5898 14.9333 17.0666 15.4101 17.0666 16V22.4C17.0666 22.9898 16.5898 23.4666 16 23.4666C15.4101 23.4666 14.9333 22.9898 14.9333 22.4V16C14.9333 15.4101 15.4101 14.9333 16 14.9333ZM20.2666 14.9333C20.8565 14.9333 21.3333 15.4101 21.3333 16V22.4C21.3333 22.9898 20.8565 23.4666 20.2666 23.4666C19.6768 23.4666 19.2 22.9898 19.2 22.4V16C19.2 15.4101 19.6768 14.9333 20.2666 14.9333Z" fill="#212B36"/>
</svg>
