<svg width="18" height="18" viewBox="0 0 18 18" fill="none" xmlns="http://www.w3.org/2000/svg">
<path fill-rule="evenodd" clip-rule="evenodd" d="M9 1C4.6 1 1 4.6 1 9C1 13.4 4.6 17 9 17C13.4 17 17 13.4 17 9C17 4.6 13.4 1 9 1ZM9 3C12.32 3 15 5.68 15 9C15 12.32 12.32 15 9 15C5.68 15 3 12.32 3 9C3 5.68 5.68 3 9 3ZM8 9.44V5.04H10V8.66L10.68 9.34L11.44 10.02L10 11.46L9.32 10.7L8.32 9.7L8 9.44Z" fill="#212B36"/>
<mask id="mask0" mask-type="alpha" maskUnits="userSpaceOnUse" x="1" y="1" width="16" height="16">
<path fill-rule="evenodd" clip-rule="evenodd" d="M9 1C4.6 1 1 4.6 1 9C1 13.4 4.6 17 9 17C13.4 17 17 13.4 17 9C17 4.6 13.4 1 9 1ZM9 3C12.32 3 15 5.68 15 9C15 12.32 12.32 15 9 15C5.68 15 3 12.32 3 9C3 5.68 5.68 3 9 3ZM8 9.44V5.04H10V8.66L10.68 9.34L11.44 10.02L10 11.46L9.32 10.7L8.32 9.7L8 9.44Z" fill="white"/>
</mask>
<g mask="url(#mask0)">
<rect width="18" height="18" rx="4" fill="#212B36"/>
</g>
</svg>
