<svg width="14" height="14" viewBox="0 0 14 14" fill="none" xmlns="http://www.w3.org/2000/svg">
<g clip-path="url(#clip0)">
<path d="M3.64 11.76C3.49234 11.76 3.34906 11.701 3.24406 11.596L0.164063 8.51598C-0.0546876 8.29723 -0.0546876 7.94286 0.164063 7.72411C0.382813 7.50536 0.737188 7.50536 0.955938 7.72411L3.60063 10.3688L9.92906 2.72348C10.1259 2.48395 10.4792 2.45114 10.7166 2.64911C10.955 2.84598 10.9889 3.19926 10.7909 3.43661L4.07094 11.5566C3.97141 11.6791 3.82375 11.7524 3.66625 11.759C3.6575 11.76 3.64875 11.76 3.64 11.76ZM6.74625 11.759C6.90375 11.7524 7.05031 11.6791 7.15094 11.5566L13.8709 3.43661C14.0689 3.19926 14.035 2.84598 13.7966 2.64911C13.5592 2.45114 13.2059 2.48504 13.0091 2.72348L6.68063 10.3688L6.55594 10.2441C6.33719 10.0254 5.98281 10.0254 5.76406 10.2441C5.54531 10.4629 5.54531 10.8172 5.76406 11.036L6.32406 11.596C6.42906 11.701 6.57234 11.76 6.72 11.76C6.72875 11.76 6.7375 11.76 6.74625 11.759Z" fill="#637381"/>
</g>
<defs>
<clipPath id="clip0">
<rect width="14" height="14" fill="white"/>
</clipPath>
</defs>
</svg>
