<svg width="40" height="40" viewBox="0 0 40 40" fill="none" xmlns="http://www.w3.org/2000/svg">
<path d="M9.99967 3.33313V9.15344L4.98665 12.0766C3.96665 12.6716 3.33301 13.7758 3.33301 14.9575V31.6665C3.33301 33.5048 4.82801 34.9998 6.66634 34.9998H33.333C35.1713 34.9998 36.6663 33.5048 36.6663 31.6665V14.9575C36.6663 13.7758 36.0327 12.6716 35.0127 12.0766L29.9997 9.15344V3.33313H9.99967ZM13.333 6.66646H26.6663V18.8898L19.9997 23.0369L13.333 18.8865V6.66646ZM16.6663 9.9998V13.3331H23.333V9.9998H16.6663ZM9.99967 13.0109V16.8129L6.84538 14.8501L9.99967 13.0109ZM29.9997 13.0141L33.154 14.8533L29.9997 16.8162V13.0141ZM16.6663 14.9998V18.3331H23.333V14.9998H16.6663Z" fill="#33b0e6"/>
</svg>
