<svg width="40" height="40" viewBox="0 0 40 40" fill="none" xmlns="http://www.w3.org/2000/svg">
<path d="M20.0005 5.06665C19.7277 5.06665 19.4548 5.17062 19.2463 5.37915L12.0921 12.5333H15.1088L20.0005 7.64165L24.8921 12.5333H27.9088L20.7546 5.37915C20.5461 5.17062 20.2733 5.06665 20.0005 5.06665ZM7.20046 14.6666C6.61166 14.6666 6.13379 15.1445 6.13379 15.7333V17.8666C6.13379 18.4554 6.61166 18.9333 7.20046 18.9333H7.37754L9.03587 28.8833C9.20761 29.9116 10.0979 30.6666 11.14 30.6666H28.8588C29.902 30.6666 30.7912 29.9116 30.963 28.8833L32.6234 18.9333H32.8005C33.3893 18.9333 33.8671 18.4554 33.8671 17.8666V15.7333C33.8671 15.1445 33.3893 14.6666 32.8005 14.6666H7.20046ZM15.7338 18.9333C16.3237 18.9333 16.8005 19.4101 16.8005 20V26.4C16.8005 26.9898 16.3237 27.4666 15.7338 27.4666C15.1439 27.4666 14.6671 26.9898 14.6671 26.4V20C14.6671 19.4101 15.1439 18.9333 15.7338 18.9333ZM20.0005 18.9333C20.5903 18.9333 21.0671 19.4101 21.0671 20V26.4C21.0671 26.9898 20.5903 27.4666 20.0005 27.4666C19.4106 27.4666 18.9338 26.9898 18.9338 26.4V20C18.9338 19.4101 19.4106 18.9333 20.0005 18.9333ZM24.2671 18.9333C24.857 18.9333 25.3338 19.4101 25.3338 20V26.4C25.3338 26.9898 24.857 27.4666 24.2671 27.4666C23.6773 27.4666 23.2005 26.9898 23.2005 26.4V20C23.2005 19.4101 23.6773 18.9333 24.2671 18.9333Z" fill="#E84671"/>
</svg>
