<svg width="18" height="18" viewBox="0 0 18 18" fill="none" xmlns="http://www.w3.org/2000/svg">
<path fill-rule="evenodd" clip-rule="evenodd" d="M1 7.99998C1 4.13998 4.14 0.99998 8 0.99998L8.02 0.97998C11.88 0.97998 15.02 4.11998 15.02 7.97998C15.02 9.17998 14.68 10.32 14.14 11.3C14.2553 11.3754 14.3626 11.4625 14.46 11.56L16.46 13.56C17.0262 14.0632 17.267 14.8387 17.0853 15.5741C16.9037 16.3095 16.3295 16.8836 15.5941 17.0653C14.8587 17.247 14.0832 17.0062 13.58 16.44L11.58 14.44C11.4855 14.3615 11.3985 14.2744 11.32 14.18C10.34 14.72 9.18 15 8 15C4.14 15 1 11.86 1 7.99998ZM13 7.99998C13 5.21998 10.78 2.99998 8 2.99998L7.98 3.01998C5.2 3.01998 2.98 5.23998 2.98 8.01998C2.98 10.8 5.2 13.02 7.98 13.02C9.28 13.02 10.48 12.56 11.36 11.76C11.4385 11.6655 11.5255 11.5785 11.62 11.5L11.68 11.44C12.52 10.54 13 9.31998 13 7.99998Z" fill="#212B36"/>
<mask id="mask0" mask-type="alpha" maskUnits="userSpaceOnUse" x="1" y="0" width="17" height="18">
<path fill-rule="evenodd" clip-rule="evenodd" d="M1 7.99998C1 4.13998 4.14 0.99998 8 0.99998L8.02 0.97998C11.88 0.97998 15.02 4.11998 15.02 7.97998C15.02 9.17998 14.68 10.32 14.14 11.3C14.2553 11.3754 14.3626 11.4625 14.46 11.56L16.46 13.56C17.0262 14.0632 17.267 14.8387 17.0853 15.5741C16.9037 16.3095 16.3295 16.8836 15.5941 17.0653C14.8587 17.247 14.0832 17.0062 13.58 16.44L11.58 14.44C11.4855 14.3615 11.3985 14.2744 11.32 14.18C10.34 14.72 9.18 15 8 15C4.14 15 1 11.86 1 7.99998ZM13 7.99998C13 5.21998 10.78 2.99998 8 2.99998L7.98 3.01998C5.2 3.01998 2.98 5.23998 2.98 8.01998C2.98 10.8 5.2 13.02 7.98 13.02C9.28 13.02 10.48 12.56 11.36 11.76C11.4385 11.6655 11.5255 11.5785 11.62 11.5L11.68 11.44C12.52 10.54 13 9.31998 13 7.99998Z" fill="white"/>
</mask>
<g mask="url(#mask0)">
<rect width="18" height="18" rx="4" fill="#C4CDD5"/>
</g>
</svg>
