<svg width="70" height="70" viewBox="0 0 70 70" fill="none" xmlns="http://www.w3.org/2000/svg">
<circle cx="35" cy="35" r="35" fill="white"/>
<path d="M35.1553 20.2444C34.8405 20.2444 34.5257 20.3643 34.2851 20.605L26.0303 28.8598H29.511L35.1553 23.2155L40.7995 28.8598H44.2803L36.0255 20.605C35.7849 20.3643 35.47 20.2444 35.1553 20.2444ZM20.386 31.3213C19.7067 31.3213 19.1553 31.8727 19.1553 32.5521V35.0136C19.1553 35.693 19.7067 36.2444 20.386 36.2444H20.5904L22.5038 47.7252C22.702 48.9116 23.7293 49.7828 24.9317 49.7828H45.3764C46.5801 49.7828 47.6062 48.9116 47.8043 47.7252L49.7202 36.2444H49.9245C50.6039 36.2444 51.1553 35.693 51.1553 35.0136V32.5521C51.1553 31.8727 50.6039 31.3213 49.9245 31.3213H20.386ZM30.2322 36.2444C30.9128 36.2444 31.463 36.7945 31.463 37.4752V44.8598C31.463 45.5404 30.9128 46.0905 30.2322 46.0905C29.5516 46.0905 29.0014 45.5404 29.0014 44.8598V37.4752C29.0014 36.7945 29.5516 36.2444 30.2322 36.2444ZM35.1553 36.2444C35.8359 36.2444 36.386 36.7945 36.386 37.4752V44.8598C36.386 45.5404 35.8359 46.0905 35.1553 46.0905C34.4747 46.0905 33.9245 45.5404 33.9245 44.8598V37.4752C33.9245 36.7945 34.4747 36.2444 35.1553 36.2444ZM40.0784 36.2444C40.759 36.2444 41.3091 36.7945 41.3091 37.4752V44.8598C41.3091 45.5404 40.759 46.0905 40.0784 46.0905C39.3977 46.0905 38.8476 45.5404 38.8476 44.8598V37.4752C38.8476 36.7945 39.3977 36.2444 40.0784 36.2444Z" fill="#E84671"/>
</svg>
