<svg width="33" height="30" viewBox="0 0 33 30" fill="none" xmlns="http://www.w3.org/2000/svg">
<path d="M16.1553 0.244385C15.8405 0.244385 15.5257 0.364346 15.2851 0.604962L7.03027 8.85977H10.511L16.1553 3.21554L21.7995 8.85977H25.2803L17.0255 0.604962C16.7849 0.364346 16.47 0.244385 16.1553 0.244385ZM1.38604 11.3213C0.706658 11.3213 0.155273 11.8727 0.155273 12.5521V15.0136C0.155273 15.693 0.706658 16.2444 1.38604 16.2444H1.59037L3.50383 27.7252C3.70199 28.9116 4.72925 29.7828 5.93172 29.7828H26.3764C27.5801 29.7828 28.6062 28.9116 28.8043 27.7252L30.7202 16.2444H30.9245C31.6039 16.2444 32.1553 15.693 32.1553 15.0136V12.5521C32.1553 11.8727 31.6039 11.3213 30.9245 11.3213H1.38604ZM11.2322 16.2444C11.9128 16.2444 12.463 16.7945 12.463 17.4752V24.8598C12.463 25.5404 11.9128 26.0905 11.2322 26.0905C10.5516 26.0905 10.0014 25.5404 10.0014 24.8598V17.4752C10.0014 16.7945 10.5516 16.2444 11.2322 16.2444ZM16.1553 16.2444C16.8359 16.2444 17.386 16.7945 17.386 17.4752V24.8598C17.386 25.5404 16.8359 26.0905 16.1553 26.0905C15.4747 26.0905 14.9245 25.5404 14.9245 24.8598V17.4752C14.9245 16.7945 15.4747 16.2444 16.1553 16.2444ZM21.0784 16.2444C21.759 16.2444 22.3091 16.7945 22.3091 17.4752V24.8598C22.3091 25.5404 21.759 26.0905 21.0784 26.0905C20.3977 26.0905 19.8476 25.5404 19.8476 24.8598V17.4752C19.8476 16.7945 20.3977 16.2444 21.0784 16.2444Z" fill="#E84671"/>
</svg>
