<svg width="70" height="70" viewBox="0 0 70 70" fill="none" xmlns="http://www.w3.org/2000/svg">
<circle cx="35" cy="35" r="35" fill="white"/>
<path d="M47.9597 18.2H22.0397C19.9197 18.2 18.1997 19.92 18.1997 22.04V47.9599C18.1997 50.0799 19.9197 51.7999 22.0397 51.7999H47.9597C50.0797 51.7999 51.7997 50.0799 51.7997 47.9599V22.04C51.7997 19.92 50.0797 18.2 47.9597 18.2ZM41.7997 23C44.6717 23 46.9997 25.328 46.9997 28.2C46.9997 31.0719 44.6717 33.3999 41.7997 33.3999C38.9277 33.3999 36.5997 31.0719 36.5997 28.2C36.5997 25.328 38.9277 23 41.7997 23ZM32.6477 25.504L25.5037 32.6479C24.7917 32.2159 24.1837 31.608 23.7597 30.896L30.8957 23.752C31.6077 24.1839 32.2157 24.792 32.6477 25.504ZM28.1997 23C28.7277 23 29.2397 23.08 29.7277 23.224L23.2237 29.7199C23.0797 29.2399 22.9997 28.728 22.9997 28.2C22.9997 25.328 25.3277 23 28.1997 23ZM28.1997 46.9999C25.3277 46.9999 22.9997 44.6719 22.9997 41.7999C22.9997 38.9279 25.3277 36.5999 28.1997 36.5999C31.0717 36.5999 33.3997 38.9279 33.3997 41.7999C33.3997 44.6719 31.0717 46.9999 28.1997 46.9999ZM28.1997 33.3999C27.6717 33.3999 27.1597 33.3199 26.6717 33.1759L33.1757 26.672C33.3197 27.16 33.3997 27.672 33.3997 28.2C33.3997 31.0719 31.0717 33.3999 28.1997 33.3999ZM36.5997 41.7999C36.5997 38.9279 38.9277 36.5999 41.7997 36.5999C42.3277 36.5999 42.8397 36.6799 43.3277 36.8239L36.8237 43.3279C36.6797 42.8399 36.5997 42.3279 36.5997 41.7999ZM37.3517 44.4959L44.4957 37.3519C45.2077 37.7839 45.8157 38.3919 46.2477 39.1039L39.1037 46.2479C38.3917 45.8159 37.7837 45.2079 37.3517 44.4959ZM41.7997 46.9999C41.2717 46.9999 40.7597 46.9199 40.2717 46.7759L46.7757 40.2719C46.9197 40.7599 46.9997 41.2719 46.9997 41.7999C46.9997 44.6719 44.6717 46.9999 41.7997 46.9999Z" fill="#E84671"/>
</svg>
