<svg width="70" height="70" viewBox="0 0 70 70" fill="none" xmlns="http://www.w3.org/2000/svg">
<circle cx="35" cy="35" r="35" fill="white"/>
<path fill-rule="evenodd" clip-rule="evenodd" d="M21 18.6667V26.6667H49V18.6667H21ZM21.0001 30.6665V50.3065C21.0001 50.5065 21.1601 50.6665 21.3601 50.6665H48.6001C48.8001 50.6665 48.9601 50.5065 48.9601 50.3065V30.6665H21.0001ZM29.0002 34.6667H25.0002V38.6667H29.0002V34.6667ZM32.9999 34.6667H36.9999V38.6667H32.9999V34.6667ZM45.0002 34.6667H41.0002V38.6667H45.0002V34.6667ZM25.0002 42.6667H29.0002V46.6667H25.0002V42.6667ZM36.9999 42.6667H32.9999V46.6667H36.9999V42.6667Z" fill="black"/>
<mask id="mask0" mask-type="alpha" maskUnits="userSpaceOnUse" x="21" y="18" width="28" height="33">
<path fill-rule="evenodd" clip-rule="evenodd" d="M21 18.6667V26.6667H49V18.6667H21ZM21.0001 30.6665V50.3065C21.0001 50.5065 21.1601 50.6665 21.3601 50.6665H48.6001C48.8001 50.6665 48.9601 50.5065 48.9601 50.3065V30.6665H21.0001ZM29.0002 34.6667H25.0002V38.6667H29.0002V34.6667ZM32.9999 34.6667H36.9999V38.6667H32.9999V34.6667ZM45.0002 34.6667H41.0002V38.6667H45.0002V34.6667ZM25.0002 42.6667H29.0002V46.6667H25.0002V42.6667ZM36.9999 42.6667H32.9999V46.6667H36.9999V42.6667Z" fill="white"/>
</mask>
<g mask="url(#mask0)">
<rect x="17" y="16.6665" width="36" height="36" rx="4" fill="#E84671"/>
</g>
</svg>
