<svg width="40" height="40" viewBox="0 0 40 40" fill="none" xmlns="http://www.w3.org/2000/svg">
<path d="M32.9597 3.19995H7.03971C4.91971 3.19995 3.19971 4.91995 3.19971 7.03995V32.9599C3.19971 35.0799 4.91971 36.7999 7.03971 36.7999H32.9597C35.0797 36.7999 36.7997 35.0799 36.7997 32.9599V7.03995C36.7997 4.91995 35.0797 3.19995 32.9597 3.19995ZM26.7997 7.99995C29.6717 7.99995 31.9997 10.328 31.9997 13.2C31.9997 16.0719 29.6717 18.3999 26.7997 18.3999C23.9277 18.3999 21.5997 16.0719 21.5997 13.2C21.5997 10.328 23.9277 7.99995 26.7997 7.99995ZM17.6477 10.504L10.5037 17.6479C9.79171 17.2159 9.18371 16.608 8.75971 15.896L15.8957 8.75195C16.6077 9.18395 17.2157 9.79195 17.6477 10.504ZM13.1997 7.99995C13.7277 7.99995 14.2397 8.07995 14.7277 8.22395L8.22371 14.7199C8.07971 14.2399 7.99971 13.728 7.99971 13.2C7.99971 10.328 10.3277 7.99995 13.1997 7.99995ZM13.1997 31.9999C10.3277 31.9999 7.99971 29.6719 7.99971 26.7999C7.99971 23.9279 10.3277 21.5999 13.1997 21.5999C16.0717 21.5999 18.3997 23.9279 18.3997 26.7999C18.3997 29.6719 16.0717 31.9999 13.1997 31.9999ZM13.1997 18.3999C12.6717 18.3999 12.1597 18.3199 11.6717 18.1759L18.1757 11.672C18.3197 12.16 18.3997 12.672 18.3997 13.2C18.3997 16.0719 16.0717 18.3999 13.1997 18.3999ZM21.5997 26.7999C21.5997 23.9279 23.9277 21.5999 26.7997 21.5999C27.3277 21.5999 27.8397 21.6799 28.3277 21.8239L21.8237 28.3279C21.6797 27.8399 21.5997 27.3279 21.5997 26.7999ZM22.3517 29.4959L29.4957 22.3519C30.2077 22.7839 30.8157 23.3919 31.2477 24.1039L24.1037 31.2479C23.3917 30.8159 22.7837 30.2079 22.3517 29.4959ZM26.7997 31.9999C26.2717 31.9999 25.7597 31.9199 25.2717 31.7759L31.7757 25.2719C31.9197 25.7599 31.9997 26.2719 31.9997 26.7999C31.9997 29.6719 29.6717 31.9999 26.7997 31.9999Z" fill="#E84671"/>
</svg>
