<svg width="28" height="35" viewBox="0 0 28 35" fill="none" xmlns="http://www.w3.org/2000/svg">
<path d="M14.1805 0.666687C12.3741 0.666687 11.5086 1.68801 11.0797 2.29911C8.72344 2.59339 6.69279 3.86729 5.37305 5.87841C3.89075 8.13722 3.07193 11.1034 2.84102 14.385C2.68426 16.6384 2.50713 18.4977 2.1082 19.5202C1.98697 19.8318 1.98126 20.1765 2.09209 20.492C2.20293 20.8074 2.423 21.0728 2.7125 21.2401C3.5864 21.745 4.79357 22.1211 6.3 22.4651C7.80643 22.8092 9.54021 23.0667 11.2 23.0667V24.464C11.2 24.4649 11.2 24.4658 11.2 24.4667V24.4694C11.0547 24.8627 10.8348 25.1982 10.5437 25.503C10.2929 25.7031 10.1254 25.8667 10.1254 25.8667C9.89748 26.0508 9.6382 26.2157 9.36523 26.3753C9.10615 26.5262 8.81425 26.6704 8.51484 26.81C8.16016 26.9758 7.79652 27.1373 7.41016 27.2913C7.26841 27.348 7.12876 27.4044 6.98359 27.4608C6.22963 27.7532 5.45927 28.0586 4.69766 28.3878C4.57037 28.4431 4.43318 28.4978 4.30937 28.5546C3.74466 28.8129 3.19785 29.0927 2.69609 29.4214C2.68624 29.4278 2.67584 29.4341 2.66602 29.4405C2.66114 29.4437 2.65722 29.4483 2.65234 29.4515C1.83065 29.9967 1.12745 30.6604 0.653516 31.5268L0.650781 31.5296C0.647462 31.5356 0.645874 31.5427 0.642578 31.5487C0.502689 31.8074 0.386423 32.0836 0.289844 32.38C0.281284 32.4061 0.265178 32.4275 0.257031 32.4538C0.229748 32.5429 0.211429 32.6345 0.202344 32.7272C0.0832007 33.1962 0 33.6969 0 34.2667H1.4957C1.52847 34.2688 1.56131 34.2697 1.59414 34.2694H26.4059C26.4214 34.2688 26.4369 34.2679 26.4523 34.2667H28C28 33.6969 27.9168 33.1962 27.7977 32.7272C27.7886 32.6345 27.7703 32.5429 27.743 32.4538C27.7348 32.4275 27.7187 32.4061 27.7102 32.38C27.6113 32.0767 27.4933 31.7907 27.3492 31.5268C26.8763 30.6619 26.1727 29.999 25.3531 29.4542C25.3466 29.4499 25.3405 29.4448 25.334 29.4405C25.3201 29.4315 25.3041 29.4249 25.2902 29.4159C24.7972 29.0941 24.2635 28.8168 23.7098 28.5628C23.5713 28.4992 23.4178 28.4386 23.275 28.3768C22.479 28.0341 21.6713 27.7173 20.8879 27.4116C20.7993 27.3768 20.7127 27.3426 20.6254 27.3077C20.2256 27.1489 19.8515 26.9812 19.4852 26.81C19.1857 26.67 18.8938 26.5262 18.6348 26.3753C18.3617 26.2157 18.0999 26.0508 17.8719 25.8667C17.8719 25.8667 17.6892 25.6823 17.4098 25.462L17.407 25.4593C17.1376 25.1668 16.9384 24.844 16.8 24.4694V23.0667C18.4375 23.0667 20.1314 22.8309 21.5934 22.5089C23.0553 22.1868 24.2106 21.8425 25.0742 21.3331C25.3671 21.1604 25.5872 20.8871 25.6934 20.5641C25.7996 20.241 25.7846 19.8904 25.6512 19.5776C25.2271 18.5803 24.9925 16.7604 24.7488 14.4206C24.368 10.7577 23.5674 7.44234 21.9187 4.8995C20.2701 2.35666 17.6025 0.666687 14.1805 0.666687ZM14.1805 3.46669C16.7602 3.46669 18.3146 4.48644 19.5699 6.42255C20.8252 8.35866 21.6097 11.2907 21.9652 14.7104C22.1484 16.4692 22.4428 17.8293 22.7992 19.1948C22.2997 19.3855 21.868 19.5809 20.9891 19.7745C19.9928 19.9939 18.8665 20.1357 17.7734 20.2038C18.8194 18.6568 19.6 16.6682 19.6 14.6667C15.7794 13.2905 12.6 10.4667 12.6 10.4667C12.6 10.4667 8.4 13.2667 8.4 16.0667C8.4 17.764 8.79667 19.1076 9.39805 20.1518C8.55171 20.0571 7.69892 19.9133 6.92344 19.7362C5.9788 19.5205 5.47159 19.2968 4.94102 19.0882C5.26253 17.6927 5.51423 16.2869 5.63281 14.5819V14.5792C5.83899 11.6545 6.60004 9.11215 7.71367 7.41512C8.82767 5.71754 10.1455 4.86669 11.9 4.86669C12.16 4.8667 12.4149 4.79432 12.6361 4.65765C12.8573 4.52097 13.036 4.32541 13.1523 4.09286C13.1523 4.09286 13.4266 3.46669 14.1805 3.46669Z" fill="#E84671"/>
</svg>
