<svg width="70" height="70" viewBox="0 0 70 70" fill="none" xmlns="http://www.w3.org/2000/svg">
<circle cx="35" cy="35" r="35" fill="white"/>
<path d="M35.1805 18.6667C33.3741 18.6667 32.5086 19.688 32.0797 20.2991C29.7234 20.5934 27.6928 21.8673 26.373 23.8784C24.8907 26.1372 24.0719 29.1034 23.841 32.385C23.6843 34.6384 23.5071 36.4977 23.1082 37.5202C22.987 37.8318 22.9813 38.1765 23.0921 38.492C23.2029 38.8074 23.423 39.0728 23.7125 39.2401C24.5864 39.745 25.7936 40.1211 27.3 40.4651C28.8064 40.8092 30.5402 41.0667 32.2 41.0667V42.464C32.2 42.4649 32.2 42.4658 32.2 42.4667V42.4694C32.0547 42.8627 31.8348 43.1982 31.5437 43.503C31.2929 43.7031 31.1254 43.8667 31.1254 43.8667C30.8975 44.0508 30.6382 44.2157 30.3652 44.3753C30.1062 44.5262 29.8143 44.6704 29.5148 44.81C29.1602 44.9758 28.7965 45.1373 28.4102 45.2913C28.2684 45.348 28.1288 45.4044 27.9836 45.4608C27.2296 45.7532 26.4593 46.0586 25.6977 46.3878C25.5704 46.4431 25.4332 46.4978 25.3094 46.5546C24.7447 46.8129 24.1978 47.0927 23.6961 47.4214C23.6862 47.4278 23.6758 47.4341 23.666 47.4405C23.6611 47.4437 23.6572 47.4483 23.6523 47.4515C22.8307 47.9967 22.1275 48.6604 21.6535 49.5268L21.6508 49.5296C21.6475 49.5356 21.6459 49.5427 21.6426 49.5487C21.5027 49.8074 21.3864 50.0836 21.2898 50.38C21.2813 50.4061 21.2652 50.4275 21.257 50.4538C21.2297 50.5429 21.2114 50.6345 21.2023 50.7272C21.0832 51.1962 21 51.6969 21 52.2667H22.4957C22.5285 52.2688 22.5613 52.2697 22.5941 52.2694H47.4059C47.4214 52.2688 47.4369 52.2679 47.4523 52.2667H49C49 51.6969 48.9168 51.1962 48.7977 50.7272C48.7886 50.6345 48.7703 50.5429 48.743 50.4538C48.7348 50.4275 48.7187 50.4061 48.7102 50.38C48.6113 50.0767 48.4933 49.7907 48.3492 49.5268C47.8763 48.6619 47.1727 47.999 46.3531 47.4542C46.3466 47.4499 46.3405 47.4448 46.334 47.4405C46.3201 47.4315 46.3041 47.4249 46.2902 47.4159C45.7972 47.0941 45.2635 46.8168 44.7098 46.5628C44.5713 46.4992 44.4178 46.4386 44.275 46.3768C43.479 46.0341 42.6713 45.7173 41.8879 45.4116C41.7993 45.3768 41.7127 45.3426 41.6254 45.3077C41.2256 45.1489 40.8515 44.9812 40.4852 44.81C40.1857 44.67 39.8938 44.5262 39.6348 44.3753C39.3617 44.2157 39.0999 44.0508 38.8719 43.8667C38.8719 43.8667 38.6892 43.6823 38.4098 43.462L38.407 43.4593C38.1376 43.1668 37.9384 42.844 37.8 42.4694V41.0667C39.4375 41.0667 41.1314 40.8309 42.5934 40.5089C44.0553 40.1868 45.2106 39.8425 46.0742 39.3331C46.3671 39.1604 46.5872 38.8871 46.6934 38.5641C46.7996 38.241 46.7846 37.8904 46.6512 37.5776C46.2271 36.5803 45.9925 34.7604 45.7488 32.4206C45.368 28.7577 44.5674 25.4423 42.9187 22.8995C41.2701 20.3567 38.6025 18.6667 35.1805 18.6667ZM35.1805 21.4667C37.7602 21.4667 39.3146 22.4864 40.5699 24.4225C41.8252 26.3587 42.6097 29.2907 42.9652 32.7104C43.1484 34.4692 43.4428 35.8293 43.7992 37.1948C43.2997 37.3855 42.868 37.5809 41.9891 37.7745C40.9928 37.9939 39.8665 38.1357 38.7734 38.2038C39.8194 36.6568 40.6 34.6682 40.6 32.6667C36.7794 31.2905 33.6 28.4667 33.6 28.4667C33.6 28.4667 29.4 31.2667 29.4 34.0667C29.4 35.764 29.7967 37.1076 30.398 38.1518C29.5517 38.0571 28.6989 37.9133 27.9234 37.7362C26.9788 37.5205 26.4716 37.2968 25.941 37.0882C26.2625 35.6927 26.5142 34.2869 26.6328 32.5819V32.5792C26.839 29.6545 27.6 27.1122 28.7137 25.4151C29.8277 23.7175 31.1455 22.8667 32.9 22.8667C33.16 22.8667 33.4149 22.7943 33.6361 22.6576C33.8573 22.521 34.036 22.3254 34.1523 22.0929C34.1523 22.0929 34.4266 21.4667 35.1805 21.4667Z" fill="#33b0e6"/>
</svg>
