<svg width="70" height="70" viewBox="0 0 70 70" fill="none" xmlns="http://www.w3.org/2000/svg">
<circle cx="35" cy="35" r="35" fill="white"/>
<path d="M47.9602 18.2H22.0402C19.9202 18.2 18.2002 19.92 18.2002 22.04V47.9599C18.2002 50.0799 19.9202 51.7999 22.0402 51.7999H47.9602C50.0802 51.7999 51.8002 50.0799 51.8002 47.9599V22.04C51.8002 19.92 50.0802 18.2 47.9602 18.2ZM41.8002 23C44.6722 23 47.0002 25.328 47.0002 28.2C47.0002 31.0719 44.6722 33.3999 41.8002 33.3999C38.9282 33.3999 36.6002 31.0719 36.6002 28.2C36.6002 25.328 38.9282 23 41.8002 23ZM32.6482 25.504L25.5042 32.6479C24.7922 32.2159 24.1842 31.608 23.7602 30.896L30.8962 23.752C31.6082 24.1839 32.2162 24.792 32.6482 25.504ZM28.2002 23C28.7282 23 29.2402 23.08 29.7282 23.224L23.2242 29.7199C23.0802 29.2399 23.0002 28.728 23.0002 28.2C23.0002 25.328 25.3282 23 28.2002 23ZM28.2002 46.9999C25.3282 46.9999 23.0002 44.6719 23.0002 41.7999C23.0002 38.9279 25.3282 36.5999 28.2002 36.5999C31.0722 36.5999 33.4002 38.9279 33.4002 41.7999C33.4002 44.6719 31.0722 46.9999 28.2002 46.9999ZM28.2002 33.3999C27.6722 33.3999 27.1602 33.3199 26.6722 33.1759L33.1762 26.672C33.3202 27.16 33.4002 27.672 33.4002 28.2C33.4002 31.0719 31.0722 33.3999 28.2002 33.3999ZM36.6002 41.7999C36.6002 38.9279 38.9282 36.5999 41.8002 36.5999C42.3282 36.5999 42.8402 36.6799 43.3282 36.8239L36.8242 43.3279C36.6802 42.8399 36.6002 42.3279 36.6002 41.7999ZM37.3522 44.4959L44.4962 37.3519C45.2082 37.7839 45.8162 38.3919 46.2482 39.1039L39.1042 46.2479C38.3922 45.8159 37.7842 45.2079 37.3522 44.4959ZM41.8002 46.9999C41.2722 46.9999 40.7602 46.9199 40.2722 46.7759L46.7762 40.2719C46.9202 40.7599 47.0002 41.2719 47.0002 41.7999C47.0002 44.6719 44.6722 46.9999 41.8002 46.9999Z" fill="#212B36"/>
</svg>
