<svg width="28" height="33" viewBox="0 0 28 33" fill="none" xmlns="http://www.w3.org/2000/svg">
<path fill-rule="evenodd" clip-rule="evenodd" d="M0 0.666687V8.66669H28V0.666687H0ZM0.000123698 12.6665V32.3065C0.000123698 32.5065 0.160124 32.6665 0.360124 32.6665H27.6001C27.8001 32.6665 27.9601 32.5065 27.9601 32.3065V12.6665H0.000123698ZM8.00016 16.6667H4.00016V20.6667H8.00016V16.6667ZM11.9999 16.6667H15.9999V20.6667H11.9999V16.6667ZM24.0002 16.6667H20.0002V20.6667H24.0002V16.6667ZM4.00016 24.6667H8.00016V28.6667H4.00016V24.6667ZM15.9999 24.6667H11.9999V28.6667H15.9999V24.6667Z" fill="black"/>
<mask id="mask0" mask-type="alpha" maskUnits="userSpaceOnUse" x="0" y="0" width="28" height="33">
<path fill-rule="evenodd" clip-rule="evenodd" d="M0 0.666687V8.66669H28V0.666687H0ZM0.000123698 12.6665V32.3065C0.000123698 32.5065 0.160124 32.6665 0.360124 32.6665H27.6001C27.8001 32.6665 27.9601 32.5065 27.9601 32.3065V12.6665H0.000123698ZM8.00016 16.6667H4.00016V20.6667H8.00016V16.6667ZM11.9999 16.6667H15.9999V20.6667H11.9999V16.6667ZM24.0002 16.6667H20.0002V20.6667H24.0002V16.6667ZM4.00016 24.6667H8.00016V28.6667H4.00016V24.6667ZM15.9999 24.6667H11.9999V28.6667H15.9999V24.6667Z" fill="white"/>
</mask>
<g mask="url(#mask0)">
<rect x="-4" y="-1.3335" width="36" height="36" rx="4" fill="#E84671"/>
</g>
</svg>
